<svg version="1.1" id="Capa_1" xmlns="http://www.w3.org/2000/svg" xmlns:xlink="http://www.w3.org/1999/xlink" x="0px" y="0px" viewBox="0 0 468 468" style="enable-background:new 0 0 468 468;" xml:space="preserve"><linearGradient id="SVGID_1_" gradientUnits="userSpaceOnUse" x1="234.0001" y1="485.29" x2="234.0001" y2="-25.4799" gradientTransform="matrix(1 0 0 -1 0 470.0001)"><stop offset="0" style="stop-color:#00EFD1"/><stop offset="1" style="stop-color:#00ACEA"/></linearGradient><path style="fill:url(#SVGID_1_);" d="M463.893,113l-40.282-68.23C418.199,35.645,408.39,30.035,397.78,30H78.12 c-9.801,0-18.985,4.786-24.6,12.82L5.37,111.844c-3.514,5.033-5.39,11.027-5.37,17.165v18.7c0.121,20.54,13.437,38.674,33,44.937 v235.373c-0.137,5.374,4.108,9.841,9.482,9.978C42.555,437.999,42.627,438,42.7,438h382.044c5.57,0.029,10.134-4.413,10.256-9.981 V192.826c19.651-6.249,32.998-24.497,33-45.118v-19.523c-0.04-5.335-1.466-10.567-4.138-15.185H463.893z M280,418h-92V282h92V418z M300,418V272.094c-0.161-5.609-4.746-10.078-10.358-10.094H177.8c-5.475,0.062-9.863,4.551-9.801,10.026 c0,0.023,0.001,0.046,0.001,0.068V418H53V194.574c10.025-1.266,19.389-5.683,26.742-12.613 c14.277,29.884,50.076,42.535,79.96,28.258c9.751-4.658,18.061-11.865,24.053-20.858c18.416,27.599,55.719,35.043,83.318,16.627 c6.792-4.532,12.588-10.401,17.035-17.248c18.275,27.848,55.665,35.608,83.513,17.332c9.054-5.942,16.341-14.212,21.096-23.941 c7.256,6.765,16.446,11.092,26.283,12.376V418H300z M448,147.708c0.014,15.012-12.144,27.192-27.155,27.207 c-12.811,0.012-23.891-8.923-26.595-21.446l-0.654-6.738c-0.572-5.493-5.489-9.482-10.982-8.91 c-5.072,0.528-8.933,4.788-8.964,9.887c-0.001,2.928,0.27,5.851,0.81,8.729l0.007,0.065c-0.216,22.077-18.288,39.799-40.365,39.583 c-21.96-0.215-39.635-18.105-39.585-40.066c0.002-5.527-4.473-10.01-10-10.019H283.7c-5.527,0.009-10.002,4.492-10,10.019 c0.114,22.078-17.691,40.069-39.77,40.183c-22.078,0.114-40.069-17.691-40.183-39.77c-0.001-0.133-0.001-0.266,0-0.4 c0-5.523-4.477-10-10-10s-10,4.477-10,10c-0.042,22.079-17.974,39.943-40.053,39.901c-21.896-0.041-39.684-17.689-39.899-39.584 l0.178-2.672c0.251-1.981,0.376-3.976,0.376-5.973c0.001-5.523-4.475-10.001-9.998-10.002c-5.266-0.001-9.631,4.082-9.98,9.337 l-0.307,4.609c-2.156,14.852-15.944,25.143-30.795,22.987C29.896,172.694,19.982,161.221,20,147.708v-18.7 c-0.014-2.044,0.604-4.043,1.769-5.723l48.166-69.018c1.866-2.676,4.923-4.27,8.185-4.267h319.66 c3.534,0.004,6.805,1.868,8.61,4.906l40.251,68.2c0.9,1.541,1.369,3.295,1.359,5.079L448,147.708z"/><g><linearGradient id="SVGID_2_" gradientUnits="userSpaceOnUse" x1="107.5002" y1="485.29" x2="107.5002" y2="-25.4799" gradientTransform="matrix(1 0 0 -1 0 470.0001)"><stop offset="0" style="stop-color:#00EFD1"/><stop offset="1" style="stop-color:#00ACEA"/></linearGradient><path style="fill:url(#SVGID_2_);" d="M149,276c0-5.523-4.477-10-10-10H76c-5.523,0-10,4.477-10,10v59c0,5.523,4.477,10,10,10h63 c5.523,0,10-4.477,10-10V276z M129,325H86v-39h43V325z"/><linearGradient id="SVGID_3_" gradientUnits="userSpaceOnUse" x1="359.5002" y1="485.29" x2="359.5002" y2="-25.4799" gradientTransform="matrix(1 0 0 -1 0 470.0001)"><stop offset="0" style="stop-color:#00EFD1"/><stop offset="1" style="stop-color:#00ACEA"/></linearGradient><path style="fill:url(#SVGID_3_);" d="M401,276c0-5.523-4.477-10-10-10h-63c-5.523,0-10,4.477-10,10v59c0,5.523,4.477,10,10,10h63 c5.523,0,10-4.477,10-10V276z M381,325h-43v-39h43V325z"/></g></svg>