<svg width="20" height="20" viewBox="0 0 20 20" fill="none" xmlns="http://www.w3.org/2000/svg">
    <path d="M19.2836 7.55056L13.3328 6.68571L10.6726 1.29275C10.6 1.14509 10.4805 1.02556 10.3328 0.952902C9.96248 0.770089 9.51248 0.922433 9.32733 1.29275L6.66717 6.68571L0.716389 7.55056C0.552327 7.574 0.402327 7.65134 0.287483 7.76853C0.148643 7.91123 0.0721362 8.10322 0.074773 8.3023C0.0774098 8.50138 0.158975 8.69127 0.301545 8.83025L4.60701 13.0279L3.58983 18.9552C3.56597 19.0931 3.58123 19.2349 3.63387 19.3646C3.68651 19.4942 3.77442 19.6066 3.88764 19.6888C4.00086 19.771 4.13486 19.8199 4.27444 19.8298C4.41401 19.8398 4.55358 19.8104 4.67733 19.7451L9.99998 16.9467L15.3226 19.7451C15.468 19.8224 15.6367 19.8482 15.7984 19.8201C16.2062 19.7498 16.4805 19.3631 16.4101 18.9552L15.393 13.0279L19.6984 8.83025C19.8156 8.7154 19.893 8.5654 19.9164 8.40134C19.9797 7.99118 19.6937 7.6115 19.2836 7.55056V7.55056Z" fill="#F2C94C"/>
</svg>
