<svg width="49" height="45" viewBox="0 0 49 45" fill="none" xmlns="http://www.w3.org/2000/svg">
    <path d="M35.1875 0.125C42.4028 0.125 48.25 6.0625 48.25 14.375C48.25 31 30.4375 40.5 24.5 44.0625C18.5625 40.5 0.75 31 0.75 14.375C0.75 6.0625 6.6875 0.125 13.8125 0.125C18.23 0.125 22.125 2.5 24.5 4.875C26.875 2.5 30.77 0.125 35.1875 0.125ZM26.7183 37.1845C28.8106 35.864 30.6987 34.5506 32.4657 33.1446C39.5456 27.5159 43.5 21.3646 43.5 14.375C43.5 8.77 39.8496 4.875 35.1875 4.875C32.632 4.875 29.8675 6.22875 27.8582 8.23325L24.5 11.5915L21.1418 8.23325C19.1325 6.22875 16.368 4.875 13.8125 4.875C9.205 4.875 5.5 8.808 5.5 14.375C5.5 21.367 9.45675 27.5159 16.5319 33.1446C18.3013 34.5506 20.1894 35.864 22.2817 37.1821C22.9919 37.631 23.6949 38.0609 24.5 38.5406C25.3051 38.0609 26.0081 37.631 26.7183 37.1845Z" fill="url(#paint0_linear_10_3084)"/>
    <defs>
        <linearGradient id="paint0_linear_10_3084" x1="24.5" y1="-4.26875" x2="24.5" y2="48.4563" gradientUnits="userSpaceOnUse">
            <stop stop-color="#FC9FCC"/>
            <stop offset="0.979167" stop-color="#F06767"/>
        </linearGradient>
    </defs>
</svg>
