<svg width="199" height="39" viewBox="0 0 199 39" fill="none" xmlns="http://www.w3.org/2000/svg">
    <path d="M27.2233 1.99658C25.4794 5.28868 23.8152 13.7414 31.1097 21.2153C33.7505 18.3385 36.6703 10.4671 27.2233 1.99658Z" fill="white"/>
    <path d="M33.0887 28.9026C31.9257 25.0791 33.9544 15.6694 50.8558 5.24878C49.6067 13.4142 44.2012 28.9026 33.0887 28.9026Z" fill="white"/>
    <path d="M29.1523 29.915C10.5296 32.0013 -0.373246 11.3165 0.252769 0.0324731C2.03987 0.332106 11.6194 4.04006 21.1609 13.4678C30.233 24.3173 32.9387 29.4908 29.1523 29.915Z" fill="white"/>
    <path d="M70.2629 31.5556C68.3216 31.5556 66.6149 31.1289 65.1429 30.2756C63.6923 29.4223 62.5616 28.1849 61.7509 26.5636C60.9403 24.9423 60.5349 22.9903 60.5349 20.7076C60.5349 18.4463 60.9616 16.5049 61.8149 14.8836C62.6683 13.2409 63.8736 11.9823 65.4309 11.1076C67.0096 10.2329 68.8336 9.7956 70.9029 9.7956C73.1856 9.7956 75.0309 10.2223 76.4389 11.0756C77.8469 11.9076 78.9669 13.2089 79.7989 14.9796L75.7029 16.7396C75.3616 15.6089 74.7749 14.7769 73.9429 14.2436C73.1323 13.6889 72.1296 13.4116 70.9349 13.4116C69.7403 13.4116 68.7056 13.6996 67.8309 14.2756C66.9563 14.8303 66.2843 15.6516 65.8149 16.7396C65.3456 17.8063 65.1109 19.1183 65.1109 20.6756C65.1109 22.2756 65.3349 23.6303 65.7829 24.7396C66.2309 25.8276 66.8923 26.6489 67.7669 27.2036C68.6629 27.7369 69.7616 28.0036 71.0629 28.0036C71.7669 28.0036 72.4176 27.9183 73.0149 27.7476C73.6336 27.5769 74.1669 27.3209 74.6149 26.9796C75.0629 26.6383 75.4149 26.2009 75.6709 25.6676C75.9269 25.1343 76.0549 24.5156 76.0549 23.8116V23.3316H70.5189V20.0996H79.8629V31.2356H76.7589L76.4389 26.6276L77.2069 27.1716C76.7376 28.5796 75.9056 29.6676 74.7109 30.4356C73.5376 31.1823 72.0549 31.5556 70.2629 31.5556ZM83.8244 31.2356V15.2356H87.6324L87.9204 18.3716C88.3471 17.2623 88.9658 16.4089 89.7764 15.8116C90.6084 15.2143 91.6431 14.9156 92.8804 14.9156C93.2431 14.9156 93.5738 14.9476 93.8724 15.0116C94.1711 15.0756 94.4164 15.1609 94.6084 15.2676L94.0964 18.9476C93.8831 18.8623 93.6164 18.7983 93.2964 18.7556C92.9978 18.7129 92.6031 18.6916 92.1124 18.6916C91.4724 18.6916 90.8538 18.8516 90.2564 19.1716C89.6591 19.4703 89.1684 19.9396 88.7844 20.5796C88.4004 21.1983 88.2084 21.9876 88.2084 22.9476V31.2356H83.8244ZM103.992 31.5556C102.307 31.5556 100.835 31.2249 99.5764 30.5636C98.3391 29.9023 97.3791 28.9529 96.6964 27.7156C96.0137 26.4783 95.6724 24.9849 95.6724 23.2356C95.6724 21.4863 96.0137 19.9929 96.6964 18.7556C97.3791 17.5183 98.3284 16.5689 99.5444 15.9076C100.782 15.2463 102.19 14.9156 103.768 14.9156C105.39 14.9156 106.766 15.2463 107.896 15.9076C109.027 16.5476 109.891 17.4329 110.488 18.5636C111.086 19.6729 111.384 20.9423 111.384 22.3716C111.384 22.7983 111.374 23.2036 111.352 23.5876C111.331 23.9716 111.299 24.3129 111.256 24.6116H98.4884V21.5716H109.336L107.224 22.3396C107.224 20.9956 106.915 19.9609 106.296 19.2356C105.699 18.5103 104.846 18.1476 103.736 18.1476C102.926 18.1476 102.222 18.3396 101.624 18.7236C101.048 19.1076 100.611 19.6836 100.312 20.4516C100.014 21.1983 99.8644 22.1476 99.8644 23.2996C99.8644 24.4303 100.024 25.3689 100.344 26.1156C100.686 26.8409 101.155 27.3849 101.752 27.7476C102.371 28.1103 103.107 28.2916 103.96 28.2916C104.899 28.2916 105.656 28.1103 106.232 27.7476C106.808 27.3849 107.256 26.8836 107.576 26.2436L111.064 27.5876C110.723 28.4196 110.2 29.1343 109.496 29.7316C108.814 30.3289 107.992 30.7876 107.032 31.1076C106.094 31.4063 105.08 31.5556 103.992 31.5556ZM122.08 31.5556C120.395 31.5556 118.923 31.2249 117.664 30.5636C116.427 29.9023 115.467 28.9529 114.784 27.7156C114.101 26.4783 113.76 24.9849 113.76 23.2356C113.76 21.4863 114.101 19.9929 114.784 18.7556C115.467 17.5183 116.416 16.5689 117.632 15.9076C118.869 15.2463 120.277 14.9156 121.856 14.9156C123.477 14.9156 124.853 15.2463 125.984 15.9076C127.115 16.5476 127.979 17.4329 128.576 18.5636C129.173 19.6729 129.472 20.9423 129.472 22.3716C129.472 22.7983 129.461 23.2036 129.44 23.5876C129.419 23.9716 129.387 24.3129 129.344 24.6116H116.576V21.5716H127.424L125.312 22.3396C125.312 20.9956 125.003 19.9609 124.384 19.2356C123.787 18.5103 122.933 18.1476 121.824 18.1476C121.013 18.1476 120.309 18.3396 119.712 18.7236C119.136 19.1076 118.699 19.6836 118.4 20.4516C118.101 21.1983 117.952 22.1476 117.952 23.2996C117.952 24.4303 118.112 25.3689 118.432 26.1156C118.773 26.8409 119.243 27.3849 119.84 27.7476C120.459 28.1103 121.195 28.2916 122.048 28.2916C122.987 28.2916 123.744 28.1103 124.32 27.7476C124.896 27.3849 125.344 26.8836 125.664 26.2436L129.152 27.5876C128.811 28.4196 128.288 29.1343 127.584 29.7316C126.901 30.3289 126.08 30.7876 125.12 31.1076C124.181 31.4063 123.168 31.5556 122.08 31.5556ZM132.744 31.2356V15.2356H136.68L136.936 20.0356L136.392 19.5236C136.648 18.4783 137.053 17.6143 137.608 16.9316C138.163 16.2489 138.835 15.7476 139.624 15.4276C140.435 15.0863 141.32 14.9156 142.28 14.9156C143.389 14.9156 144.371 15.1289 145.224 15.5556C146.099 15.9823 146.781 16.6329 147.272 17.5076C147.784 18.3609 148.04 19.4383 148.04 20.7396V31.2356H143.656V21.9876C143.656 20.6223 143.389 19.6836 142.856 19.1716C142.323 18.6383 141.629 18.3716 140.776 18.3716C140.179 18.3716 139.592 18.5209 139.016 18.8196C138.461 19.0969 138.003 19.5556 137.64 20.1956C137.299 20.8356 137.128 21.6889 137.128 22.7556V31.2356H132.744ZM159.537 31.5556C157.852 31.5556 156.38 31.2249 155.121 30.5636C153.884 29.9023 152.924 28.9529 152.241 27.7156C151.558 26.4783 151.217 24.9849 151.217 23.2356C151.217 21.4863 151.558 19.9929 152.241 18.7556C152.924 17.5183 153.873 16.5689 155.089 15.9076C156.326 15.2463 157.734 14.9156 159.313 14.9156C160.934 14.9156 162.31 15.2463 163.441 15.9076C164.572 16.5476 165.436 17.4329 166.033 18.5636C166.63 19.6729 166.929 20.9423 166.929 22.3716C166.929 22.7983 166.918 23.2036 166.897 23.5876C166.876 23.9716 166.844 24.3129 166.801 24.6116H154.033V21.5716H164.881L162.769 22.3396C162.769 20.9956 162.46 19.9609 161.841 19.2356C161.244 18.5103 160.39 18.1476 159.281 18.1476C158.47 18.1476 157.766 18.3396 157.169 18.7236C156.593 19.1076 156.156 19.6836 155.857 20.4516C155.558 21.1983 155.409 22.1476 155.409 23.2996C155.409 24.4303 155.569 25.3689 155.889 26.1156C156.23 26.8409 156.7 27.3849 157.297 27.7476C157.916 28.1103 158.652 28.2916 159.505 28.2916C160.444 28.2916 161.201 28.1103 161.777 27.7476C162.353 27.3849 162.801 26.8836 163.121 26.2436L166.609 27.5876C166.268 28.4196 165.745 29.1343 165.041 29.7316C164.358 30.3289 163.537 30.7876 162.577 31.1076C161.638 31.4063 160.625 31.5556 159.537 31.5556ZM170.201 31.2356V15.2356H174.009L174.297 18.3716C174.723 17.2623 175.342 16.4089 176.153 15.8116C176.985 15.2143 178.019 14.9156 179.257 14.9156C179.619 14.9156 179.95 14.9476 180.249 15.0116C180.547 15.0756 180.793 15.1609 180.985 15.2676L180.473 18.9476C180.259 18.8623 179.993 18.7983 179.673 18.7556C179.374 18.7129 178.979 18.6916 178.489 18.6916C177.849 18.6916 177.23 18.8516 176.633 19.1716C176.035 19.4703 175.545 19.9396 175.161 20.5796C174.777 21.1983 174.585 21.9876 174.585 22.9476V31.2356H170.201ZM198.297 15.2356L191.833 32.2276C191.321 33.6783 190.745 34.8303 190.105 35.6836C189.486 36.5369 188.761 37.1556 187.929 37.5396C187.118 37.9236 186.148 38.1156 185.017 38.1156C184.185 38.1156 183.417 38.0089 182.713 37.7956C182.03 37.6036 181.433 37.3476 180.921 37.0276L181.849 33.8596C182.254 34.1796 182.681 34.4036 183.129 34.5316C183.577 34.6809 184.089 34.7556 184.665 34.7556C185.262 34.7556 185.774 34.6276 186.201 34.3716C186.649 34.1156 187.022 33.6036 187.321 32.8356L187.865 31.4596L186.105 27.2996L181.209 15.2356H186.073L189.113 24.8356L189.945 28.0356L190.937 24.6436L193.849 15.2356H198.297Z" fill="white"/>
</svg>
