<svg width="1440" height="445" viewBox="0 0 1440 445" fill="none" xmlns="http://www.w3.org/2000/svg">
    <path d="M1152.33 292.588C1157.46 294.837 1169.99 294.561 1170.09 294.561C1170.19 294.561 1167.38 286.352 1167.15 285.859C1164.4 280.117 1155.7 270.606 1148.62 271.573C1147.45 271.763 1146.33 272.197 1145.34 272.848C1144.35 273.498 1143.51 274.35 1142.87 275.347C1142.23 276.345 1141.8 277.466 1141.62 278.638C1141.45 279.81 1141.52 281.006 1141.83 282.149C1142.94 287.043 1147.97 290.674 1152.33 292.588Z" fill="#A9C868"/>
    <path d="M1156.65 328.895C1161.98 329.684 1173.17 326.429 1174.05 326.172C1175.89 332.574 1178.16 338.843 1180.84 344.937C1182.38 348.509 1184.04 352.041 1185.74 355.573C1184.73 354.073 1183.76 352.751 1183.64 352.574C1179.48 347.759 1168.59 340.892 1161.94 343.675C1160.86 344.167 1159.89 344.882 1159.11 345.773C1158.32 346.664 1157.73 347.711 1157.38 348.845C1157.02 349.979 1156.91 351.175 1157.05 352.355C1157.19 353.535 1157.58 354.672 1158.19 355.691C1160.62 360.111 1166.42 362.302 1171.13 362.973C1175.85 363.644 1185.52 361.098 1188.04 360.388C1188.71 361.729 1189.37 363.091 1190.02 364.433C1193.27 370.885 1196.53 377.298 1199.53 383.711C1200.59 385.961 1201.5 388.21 1202.53 390.479C1201.62 389.138 1200.83 388.033 1200.71 387.875C1196.53 383.06 1185.64 376.193 1179.01 378.975C1177.93 379.47 1176.96 380.187 1176.18 381.078C1175.4 381.969 1174.81 383.015 1174.45 384.149C1174.1 385.282 1173.99 386.477 1174.13 387.656C1174.27 388.835 1174.65 389.972 1175.26 390.992C1177.68 395.412 1183.51 397.583 1188.2 398.274C1192.9 398.964 1201.66 396.656 1204.66 395.807C1205.59 398.155 1206.51 400.503 1207.3 402.812C1207.82 404.391 1208.41 405.89 1208.82 407.508C1209.24 409.126 1209.71 410.705 1210.14 412.264C1210.87 415.322 1211.64 418.46 1212.29 421.459C1212.75 423.531 1213.14 425.524 1213.56 427.537C1212.53 425.267 1210.42 420.906 1210.2 420.551C1206.81 415.145 1197.08 406.739 1190.16 408.475C1189.02 408.804 1187.96 409.368 1187.05 410.13C1186.14 410.893 1185.4 411.837 1184.88 412.902C1184.36 413.968 1184.07 415.13 1184.03 416.315C1183.98 417.5 1184.19 418.681 1184.63 419.782C1186.37 424.517 1191.79 427.556 1196.33 428.957C1201.36 430.477 1212.45 429.076 1213.85 428.957C1214.5 432.272 1215.12 435.508 1215.65 438.567C1216.06 440.836 1216.42 443.007 1216.75 445.098H1221.19C1220.78 442.77 1220.33 440.343 1219.81 437.797C1219.16 434.423 1218.37 430.832 1217.54 427.142C1220.89 425.825 1224.16 424.296 1227.31 422.564C1230.98 426.51 1240.33 431.147 1241.56 431.739C1240.28 434.877 1239.01 437.916 1237.77 440.757L1235.8 445.098H1240.71C1241.08 444.21 1241.46 443.322 1241.83 442.395C1243.14 439.218 1244.48 435.804 1245.78 432.272C1247.12 432.549 1258.11 434.798 1263.24 433.634C1267.88 432.588 1273.5 429.964 1275.6 425.366C1276.12 424.301 1276.41 423.138 1276.46 421.953C1276.5 420.767 1276.3 419.585 1275.86 418.484C1275.42 417.383 1274.75 416.386 1273.9 415.559C1273.05 414.732 1272.03 414.094 1270.92 413.684C1264.15 411.415 1253.81 419.091 1250.04 424.221C1249.81 424.537 1247.75 428.168 1246.49 430.358C1247.02 428.898 1247.58 427.517 1248.11 426.017C1249.19 423.077 1250.08 420.097 1251.27 416.901C1251.72 415.342 1252.19 413.783 1252.67 412.185C1253.14 410.586 1253.52 408.89 1253.95 407.232C1254.86 403.286 1255.61 399.339 1256.28 395.393C1258.84 396.34 1268.12 399.536 1272.83 399.201C1277.55 398.866 1283.55 397.129 1286.31 392.906C1286.99 391.934 1287.46 390.83 1287.68 389.666C1287.91 388.501 1287.88 387.303 1287.62 386.147C1287.35 384.992 1286.84 383.906 1286.13 382.959C1285.41 382.013 1284.51 381.227 1283.47 380.653C1277.12 377.377 1265.71 383.415 1261.21 387.914C1260.93 388.19 1258.05 391.861 1256.51 393.834C1256.89 391.407 1257.28 389.019 1257.58 386.553C1258.47 379.469 1259.12 372.286 1259.83 365.104C1260.05 362.913 1260.28 360.723 1260.52 358.533C1261.43 358.868 1272.36 362.913 1277.65 362.479C1282.38 362.164 1288.36 360.506 1291.11 356.185C1291.79 355.213 1292.26 354.109 1292.48 352.944C1292.71 351.779 1292.69 350.58 1292.42 349.423C1292.15 348.267 1291.64 347.18 1290.93 346.234C1290.21 345.288 1289.3 344.503 1288.26 343.931C1281.91 340.655 1270.51 346.694 1266.03 351.193C1265.67 351.528 1261.55 356.698 1260.56 358.079C1261.05 353.245 1261.61 348.45 1262.36 343.734C1263.32 337.364 1264.69 331.062 1266.46 324.87C1266.89 325.028 1278.3 329.309 1283.69 328.915C1288.44 328.599 1294.4 326.843 1297.16 322.62C1297.84 321.648 1298.31 320.544 1298.53 319.379C1298.76 318.215 1298.74 317.016 1298.47 315.861C1298.2 314.706 1297.69 313.62 1296.98 312.673C1296.26 311.727 1295.36 310.941 1294.32 310.367C1287.97 307.091 1276.56 313.129 1272.06 317.628C1271.71 317.983 1267.27 323.548 1266.54 324.613C1266.54 324.258 1266.72 323.883 1266.82 323.528C1268.78 317.367 1271.28 311.391 1274.29 305.67C1275.91 302.493 1277.65 299.553 1279.38 296.712C1281.36 297.738 1290.73 302.257 1295.7 302.454C1300.68 302.651 1306.58 301.566 1309.77 297.659C1310.56 296.77 1311.15 295.725 1311.5 294.593C1311.86 293.46 1311.97 292.266 1311.83 291.088C1311.69 289.909 1311.31 288.773 1310.7 287.753C1310.1 286.733 1309.28 285.853 1308.31 285.168C1302.39 281.222 1290.38 285.977 1285.4 289.944C1285.13 290.161 1282.6 292.667 1280.81 294.522C1281.61 293.259 1282.42 291.937 1283.21 290.733C1286.21 286.234 1289.23 282.307 1291.91 278.894C1293.47 276.92 1294.91 275.204 1296.28 273.586C1298.78 273.586 1308.88 273.23 1313.3 271.159C1317.72 269.087 1322.54 265.357 1323.58 260.424C1323.87 259.273 1323.91 258.075 1323.7 256.907C1323.49 255.74 1323.04 254.63 1322.37 253.649C1321.71 252.668 1320.84 251.838 1319.83 251.214C1318.82 250.589 1317.7 250.184 1316.52 250.025C1309.42 249.256 1300.99 258.984 1298.39 264.805C1298.17 265.318 1295.56 273.586 1295.68 273.586H1295.96C1294.62 275.125 1293.2 276.763 1291.68 278.598C1288.9 282.011 1285.76 285.898 1282.7 290.338C1279.31 295.1 1276.2 300.054 1273.39 305.177C1270.22 310.901 1267.58 316.897 1265.49 323.094C1265.49 323.094 1265.49 323.252 1265.49 323.311C1265.49 321.219 1265.49 315.418 1265.39 314.925C1264.57 308.61 1259.26 296.87 1252.25 295.567C1251.08 295.38 1249.89 295.441 1248.75 295.746C1247.6 296.052 1246.54 296.594 1245.62 297.339C1244.7 298.083 1243.95 299.013 1243.41 300.068C1242.87 301.123 1242.56 302.279 1242.5 303.46C1242.09 308.472 1245.72 313.504 1249.27 316.681C1253.22 320.252 1264.41 323.725 1265.3 324.001C1263.29 330.353 1261.72 336.834 1260.6 343.398C1259.91 347.226 1259.34 351.094 1258.82 354.981C1258.82 353.166 1258.82 351.548 1258.82 351.331C1258.01 344.997 1252.71 333.256 1245.68 331.954C1244.51 331.773 1243.32 331.838 1242.18 332.146C1241.04 332.454 1239.98 332.997 1239.06 333.74C1238.14 334.484 1237.39 335.411 1236.85 336.463C1236.31 337.514 1236 338.667 1235.93 339.846C1235.52 344.878 1239.17 349.91 1242.72 353.087C1246.27 356.264 1255.75 359.441 1258.25 360.25C1258.07 361.73 1257.88 363.229 1257.7 364.709C1256.83 371.892 1256 379.035 1255 386.04C1254.62 388.506 1254.19 390.913 1253.75 393.321C1253.75 391.722 1253.75 390.361 1253.65 390.164C1252.84 383.849 1247.54 372.109 1240.51 370.806C1239.34 370.622 1238.15 370.686 1237.01 370.992C1235.87 371.299 1234.8 371.841 1233.88 372.585C1232.96 373.329 1232.21 374.258 1231.67 375.311C1231.14 376.364 1230.83 377.519 1230.76 378.699C1230.35 383.711 1234 388.743 1237.55 391.92C1241.1 395.097 1249.67 397.978 1252.63 398.944C1252.11 401.391 1251.6 403.858 1250.99 406.226C1250.52 407.824 1250.2 409.403 1249.65 411.001C1249.1 412.599 1248.64 414.138 1248.13 415.677C1247.06 418.637 1245.98 421.597 1244.85 424.537C1244.08 426.51 1243.33 428.484 1242.56 430.299C1242.94 427.852 1243.61 423.038 1243.61 422.643C1243.53 417.027 1242.02 411.523 1239.21 406.66C1239.23 406.039 1239.19 405.418 1239.09 404.805C1238.94 403.627 1238.55 402.493 1237.93 401.478C1237.32 400.462 1236.5 399.587 1235.52 398.91C1234.55 398.232 1233.44 397.768 1232.27 397.546C1231.11 397.324 1229.91 397.35 1228.75 397.622C1221.87 399.458 1217.48 411.573 1217.15 417.947C1217.15 418.322 1217.39 422.426 1217.58 425.011C1217.23 423.511 1216.91 422.051 1216.54 420.512C1215.81 417.453 1215 414.434 1214.13 411.179C1213.68 409.62 1213.18 408.041 1212.71 406.443C1212.24 404.844 1211.6 403.246 1211.03 401.628C1209.67 397.899 1208.11 394.169 1206.45 390.46C1209.12 389.828 1218.57 387.421 1222.38 384.54C1226.19 381.659 1230.15 376.904 1230.13 371.852C1230.16 370.667 1229.94 369.489 1229.49 368.394C1229.03 367.3 1228.35 366.313 1227.49 365.498C1226.63 364.683 1225.6 364.059 1224.49 363.664C1223.37 363.27 1222.18 363.115 1221 363.209C1213.89 363.979 1207.74 375.286 1206.45 381.541C1206.45 381.916 1205.94 386.513 1205.76 389.039C1204.76 386.809 1203.79 384.579 1202.65 382.369C1199.47 375.976 1196.06 369.603 1192.78 363.249L1189.72 357.329C1190.69 357.112 1201.98 354.488 1206.24 351.212C1210.01 348.312 1214.01 343.576 1213.99 338.544C1214.02 337.357 1213.8 336.177 1213.35 335.08C1212.9 333.983 1212.22 332.994 1211.35 332.177C1210.49 331.36 1209.47 330.734 1208.35 330.338C1207.23 329.943 1206.04 329.787 1204.86 329.882C1197.75 330.651 1191.6 341.958 1190.31 348.213C1190.31 348.686 1189.6 355.277 1189.54 356.974C1187.31 352.653 1185.12 348.351 1183.13 344.01C1180.42 338.168 1178.09 332.157 1176.17 326.014C1176.6 325.915 1188.42 323.232 1192.76 319.877C1196.55 316.996 1200.55 312.241 1200.51 307.209C1200.55 306.022 1200.33 304.84 1199.88 303.742C1199.43 302.643 1198.75 301.653 1197.88 300.835C1197.02 300.018 1196 299.391 1194.88 298.997C1193.75 298.603 1192.56 298.449 1191.38 298.547C1184.29 299.316 1178.12 310.623 1176.84 316.878C1176.84 317.371 1176.11 324.475 1176.07 325.758C1176.07 325.402 1175.81 325.047 1175.71 324.692C1173.94 318.479 1172.73 312.119 1172.1 305.69C1171.69 302.138 1171.51 298.725 1171.41 295.39C1173.66 295.133 1183.92 293.752 1188.18 291.187C1192.44 288.622 1196.77 284.438 1197.28 279.347C1197.44 278.171 1197.35 276.975 1197.02 275.835C1196.69 274.695 1196.12 273.638 1195.35 272.732C1194.59 271.825 1193.64 271.091 1192.57 270.575C1191.5 270.059 1190.34 269.774 1189.15 269.738C1182.01 269.738 1174.65 280.295 1172.67 286.372C1172.67 286.688 1171.86 290.161 1171.37 292.706C1171.37 291.206 1171.37 289.648 1171.37 288.227C1171.37 282.82 1171.73 277.868 1172.06 273.487C1172.28 271.001 1172.51 268.771 1172.77 266.66C1174.84 265.239 1183.09 259.418 1185.64 255.254C1188.18 251.091 1190.14 245.388 1188.3 240.613C1187.9 239.496 1187.27 238.475 1186.45 237.617C1185.63 236.759 1184.64 236.084 1183.54 235.633C1182.44 235.183 1181.26 234.968 1180.08 235.004C1178.89 235.039 1177.73 235.323 1176.66 235.838C1170.32 239.113 1168.65 251.9 1169.69 258.175C1169.69 258.727 1172.18 267.054 1172.3 266.995L1172.42 266.896C1172.14 268.87 1171.86 271.08 1171.61 273.447C1171.17 277.828 1170.72 282.781 1170.6 288.207C1170.4 294.044 1170.54 299.888 1171.02 305.71C1171.52 312.232 1172.6 318.697 1174.25 325.028C1174.25 325.028 1174.25 325.185 1174.25 325.264C1173.13 323.488 1169.81 318.674 1169.52 318.319C1165.35 313.504 1154.46 306.637 1147.81 309.419C1146.73 309.914 1145.77 310.631 1144.98 311.522C1144.2 312.413 1143.61 313.459 1143.26 314.593C1142.9 315.726 1142.79 316.921 1142.93 318.1C1143.07 319.279 1143.45 320.416 1144.06 321.436C1146.13 326.034 1151.91 328.204 1156.65 328.895Z" fill="#A9C868"/>
    <path d="M1279.13 295.35C1279.13 295.35 1281.4 287.023 1281.48 286.471C1282.36 280.156 1280.35 267.429 1273.92 264.331C1272.84 263.843 1271.66 263.589 1270.48 263.585C1269.29 263.581 1268.12 263.827 1267.03 264.307C1265.94 264.788 1264.97 265.491 1264.18 266.373C1263.38 267.254 1262.78 268.293 1262.42 269.422C1260.7 274.158 1262.87 279.979 1265.47 283.965C1268.51 288.661 1279.11 295.35 1279.13 295.35Z" fill="#A9C868"/>
    <path d="M8.78643 292.588C13.9168 294.837 26.5454 294.561 26.5454 294.561C26.5454 294.561 23.8421 286.352 23.6053 285.859C20.8626 280.117 12.1606 270.606 5.07677 271.573C3.90704 271.762 2.79049 272.197 1.80002 272.847C0.809557 273.498 -0.0325398 274.35 -0.671273 275.348C-1.31001 276.346 -1.73101 277.468 -1.90679 278.64C-2.08257 279.812 -2.00917 281.008 -1.69138 282.149C-0.606111 287.043 4.42561 290.674 8.78643 292.588Z" fill="#A9C868"/>
    <path d="M13.1277 328.895C18.4357 329.684 29.6238 326.428 30.5118 326.172C32.3578 332.551 34.6254 338.8 37.2997 344.878C38.8388 348.45 40.4963 351.982 42.213 355.514C41.1869 354.014 40.2398 352.692 40.1214 352.514C35.9382 347.7 25.046 340.833 18.4159 343.615C17.3369 344.11 16.374 344.826 15.5898 345.718C14.8057 346.609 14.2177 347.655 13.8641 348.788C13.5106 349.922 13.3993 351.117 13.5376 352.296C13.6759 353.475 14.0606 354.612 14.6668 355.632C17.0939 360.052 22.9149 362.243 27.6112 362.913C32.3074 363.584 41.996 361.039 44.5217 360.328C45.1926 361.67 45.8437 363.032 46.4949 364.374C49.731 370.826 52.9868 377.239 55.9861 383.652C57.0516 385.901 57.9593 388.151 58.9854 390.42C58.0777 389.078 57.3082 387.973 57.17 387.815C52.9868 383.001 42.0946 376.134 35.4646 378.916C34.3856 379.411 33.4227 380.127 32.6385 381.019C31.8543 381.91 31.2664 382.956 30.9128 384.089C30.5592 385.223 30.448 386.418 30.5863 387.597C30.7246 388.776 31.1093 389.912 31.7155 390.933C34.1425 395.353 39.9635 397.524 44.6795 398.214C49.3955 398.905 58.1172 396.596 61.1165 395.748C62.0439 398.096 62.9713 400.444 63.7606 402.753C64.2737 404.331 64.8656 405.831 65.28 407.449C65.6944 409.067 66.168 410.646 66.6021 412.205C67.3322 415.263 68.1214 418.4 68.7529 421.4C69.2067 423.472 69.6211 425.465 70.0157 427.477C68.9897 425.208 66.8783 420.847 66.6613 420.492C63.2673 415.085 53.5393 406.68 46.6133 408.416C45.4709 408.759 44.4138 409.339 43.5113 410.119C42.6088 410.898 41.8813 411.86 41.3764 412.941C40.8715 414.021 40.6007 415.196 40.5816 416.389C40.5626 417.581 40.7958 418.764 41.2659 419.861C42.9826 424.596 48.4089 427.635 52.9671 429.036C57.9791 430.555 69.0686 429.154 70.4696 429.036C71.1207 432.351 71.7522 435.587 72.2849 438.646C72.6796 440.915 73.0348 443.085 73.3702 445.177H77.8297C77.3956 442.849 76.9417 440.422 76.4287 437.876C75.7775 434.502 75.008 430.911 74.1792 427.221C77.5203 425.898 80.7758 424.369 83.927 422.643C87.5972 426.589 96.9502 431.226 98.1736 431.818C96.891 434.956 95.6282 437.995 94.385 440.836C93.7339 442.336 93.0827 443.756 92.4118 445.177H97.1081C97.483 444.289 97.8579 443.401 98.2328 442.474C99.5549 439.297 100.877 435.883 102.179 432.351C103.521 432.627 114.512 434.877 119.642 433.713C124.279 432.667 129.903 430.042 131.995 425.445C132.521 424.381 132.818 423.217 132.865 422.031C132.912 420.845 132.708 419.662 132.266 418.559C131.825 417.457 131.156 416.46 130.304 415.634C129.451 414.807 128.434 414.17 127.318 413.763C120.55 411.494 110.23 419.17 106.441 424.3C106.205 424.616 104.153 428.247 102.89 430.437C103.442 428.977 103.975 427.596 104.508 426.096C105.593 423.156 106.481 420.176 107.665 416.98C108.119 415.421 108.592 413.862 109.066 412.264C109.539 410.665 109.914 408.968 110.348 407.311C111.276 403.364 112.006 399.418 112.677 395.472C115.262 396.419 124.516 399.615 129.232 399.28C133.948 398.944 139.947 397.208 142.709 392.985C143.391 392.014 143.861 390.91 144.088 389.745C144.315 388.58 144.293 387.38 144.025 386.224C143.757 385.068 143.248 383.981 142.532 383.035C141.816 382.088 140.908 381.304 139.868 380.732C133.514 377.456 122.109 383.494 117.61 387.993C117.334 388.269 114.453 391.94 112.914 393.913C113.289 391.486 113.683 389.098 113.979 386.632C114.867 379.548 115.538 372.365 116.229 365.183C116.446 362.992 116.682 360.802 116.919 358.612C117.827 358.947 128.759 362.992 134.047 362.558C138.802 362.242 144.761 360.585 147.504 356.264C148.186 355.292 148.656 354.188 148.883 353.023C149.109 351.858 149.088 350.658 148.82 349.502C148.552 348.346 148.043 347.259 147.327 346.313C146.61 345.367 145.703 344.582 144.663 344.01C138.329 340.734 126.904 346.772 122.425 351.271C122.089 351.607 117.945 356.777 116.959 358.158C117.472 353.324 118.024 348.529 118.754 343.813C119.72 337.442 121.098 331.141 122.878 324.949C123.293 325.106 134.619 329.388 140.105 328.994C144.84 328.678 150.819 326.922 153.562 322.699C154.241 321.727 154.708 320.623 154.933 319.458C155.158 318.294 155.136 317.095 154.868 315.94C154.6 314.785 154.093 313.698 153.378 312.752C152.664 311.805 151.758 311.02 150.721 310.445C144.367 307.17 132.962 313.208 128.482 317.707C128.127 318.062 123.668 323.626 122.938 324.692C123.036 324.337 123.115 323.962 123.214 323.607C125.177 317.446 127.679 311.47 130.692 305.749C132.31 302.572 134.047 299.632 135.803 296.791C137.776 297.817 147.149 302.335 152.102 302.533C157.055 302.73 162.974 301.645 166.191 297.738C166.972 296.846 167.557 295.8 167.909 294.667C168.26 293.535 168.37 292.341 168.23 291.163C168.09 289.986 167.705 288.851 167.099 287.831C166.493 286.812 165.679 285.932 164.711 285.247C158.791 281.301 146.774 286.056 141.802 290.023C141.525 290.24 139.019 292.746 137.204 294.6C138.013 293.337 138.822 292.015 139.631 290.812C142.611 286.313 145.551 282.386 148.313 278.972C149.872 276.999 151.313 275.283 152.674 273.664C155.18 273.664 165.283 273.309 169.703 271.237C174.123 269.166 178.938 265.436 179.983 260.503C180.269 259.352 180.308 258.154 180.099 256.986C179.89 255.819 179.438 254.708 178.772 253.728C178.105 252.747 177.24 251.917 176.231 251.293C175.223 250.668 174.095 250.263 172.919 250.104C165.816 249.335 157.39 259.063 154.785 264.884C154.568 265.397 151.964 273.664 152.102 273.664H152.24C150.898 275.204 149.477 276.841 147.958 278.676C145.176 282.09 142.038 285.977 138.98 290.417C135.643 295.128 132.573 300.023 129.785 305.078C126.622 310.802 123.98 316.798 121.892 322.995V323.212C121.892 321.12 121.892 315.319 121.773 314.826C120.945 308.512 115.656 296.771 108.632 295.469C107.463 295.281 106.269 295.342 105.126 295.648C103.982 295.953 102.916 296.495 101.997 297.24C101.077 297.985 100.325 298.915 99.7884 299.969C99.2521 301.024 98.9439 302.18 98.884 303.361C98.4696 308.373 102.12 313.405 105.672 316.582C109.618 320.154 120.787 323.626 121.675 323.903C119.682 330.257 118.113 336.737 116.978 343.3C116.288 347.128 115.735 350.995 115.203 354.882C115.203 353.067 115.203 351.449 115.203 351.232C114.374 344.898 109.066 333.157 102.041 331.855C100.874 331.674 99.6813 331.74 98.5407 332.047C97.4001 332.355 96.3365 332.898 95.4184 333.641C94.5002 334.385 93.7479 335.312 93.2097 336.364C92.6715 337.416 92.3594 338.568 92.2934 339.748C91.8988 344.779 95.5295 349.811 99.0813 352.988C102.633 356.165 112.105 359.342 114.611 360.151C114.433 361.631 114.236 363.13 114.058 364.61C113.19 371.793 112.381 378.936 111.355 385.941C111 388.407 110.546 390.815 110.112 393.222C110.112 391.624 110.112 390.262 110.112 390.065C109.283 383.751 103.975 372.01 96.97 370.708C95.8016 370.52 94.607 370.581 93.4638 370.887C92.3206 371.192 91.2545 371.734 90.3349 372.479C89.4154 373.224 88.6629 374.154 88.1266 375.208C87.5903 376.263 87.2822 377.419 87.2222 378.601C86.8079 383.612 90.4386 388.644 93.9904 391.821C97.5422 394.998 106.106 397.879 109.086 398.846C108.553 401.293 108.04 403.759 107.428 406.127C106.974 407.725 106.639 409.304 106.086 410.902C105.534 412.5 105.08 414.04 104.567 415.579C103.501 418.539 102.416 421.498 101.291 424.439C100.541 426.412 99.7719 428.385 99.0024 430.2C99.397 427.753 100.048 422.939 100.048 422.544C99.9727 416.928 98.4576 411.425 95.6479 406.561C95.6669 405.94 95.6273 405.319 95.5295 404.706C95.3838 403.529 94.9918 402.396 94.3789 401.38C93.766 400.365 92.9461 399.489 91.9725 398.812C90.9989 398.134 89.8935 397.669 88.7282 397.447C87.563 397.225 86.3641 397.251 85.2096 397.524C78.3033 399.359 73.9227 411.474 73.607 417.848C73.607 418.223 73.824 422.327 74.0214 424.912C73.6662 423.412 73.3505 421.952 72.9756 420.413C72.2455 417.355 71.4365 414.336 70.588 411.08C70.1144 409.521 69.6408 407.942 69.1475 406.344C68.6542 404.746 68.0425 403.147 67.49 401.529C66.1285 397.8 64.5499 394.071 62.8924 390.361C65.576 389.729 75.0277 387.322 78.8163 384.441C82.6049 381.56 86.6105 376.805 86.5711 371.753C86.5997 370.568 86.379 369.39 85.9234 368.296C85.4677 367.201 84.7871 366.214 83.9258 365.4C83.0646 364.585 82.0417 363.96 80.9236 363.566C79.8054 363.171 78.6169 363.016 77.4351 363.111C70.3315 363.88 64.175 375.187 62.8924 381.442C62.8924 381.817 62.3794 386.414 62.2018 388.94C61.1954 386.71 60.2285 384.481 59.0841 382.271C55.9072 375.877 52.5132 369.504 49.2179 363.15C48.1721 361.177 47.2447 359.204 46.1595 357.231C47.1066 357.013 58.3934 354.389 62.6556 351.114C66.4245 348.213 70.5485 343.477 70.4104 338.445C70.4418 337.258 70.2232 336.078 69.7688 334.981C69.3144 333.884 68.6342 332.895 67.7726 332.078C66.911 331.261 65.8872 330.635 64.7677 330.239C63.6481 329.844 62.4579 329.688 61.2743 329.783C54.1707 330.553 48.0143 341.859 46.7317 348.114C46.633 348.588 46.0411 355.178 45.9621 356.875C43.7324 352.554 41.5421 348.252 39.5492 343.911C36.8403 338.07 34.5135 332.059 32.5837 325.915C33.0375 325.817 44.8374 323.133 49.1785 319.779C52.9671 316.898 56.9727 312.142 56.9333 307.111C56.9675 305.925 56.7515 304.745 56.2994 303.648C55.8472 302.551 55.1689 301.562 54.3088 300.744C53.4488 299.927 52.4261 299.3 51.3076 298.905C50.189 298.509 48.9996 298.353 47.817 298.448C40.7134 299.218 34.5569 310.524 33.2546 316.779C33.1559 317.273 32.5245 324.376 32.5047 325.659C32.3864 325.304 32.2285 324.949 32.1298 324.593C30.3687 318.378 29.1603 312.019 28.5188 305.591C28.1242 302.039 27.9269 298.626 27.8282 295.291C30.0777 295.034 40.3582 293.653 44.6006 291.088C48.843 288.523 53.1841 284.34 53.6972 279.249C53.8227 278.06 53.6949 276.858 53.3223 275.722C52.9497 274.586 52.3406 273.542 51.5353 272.658C50.73 271.774 49.7466 271.071 48.65 270.595C47.5534 270.119 46.3683 269.881 45.1728 269.896C38.0495 269.896 30.6696 280.452 28.7162 286.53C28.5978 286.846 27.8874 290.319 27.3941 292.864C27.3941 291.364 27.3941 289.805 27.3941 288.385C27.3941 282.978 27.7295 278.025 28.0847 273.645C28.282 271.158 28.5386 268.929 28.7754 266.817C30.7486 265.397 39.115 259.576 41.6408 255.412C44.1665 251.249 46.1595 245.546 44.3046 240.771C43.9049 239.654 43.2747 238.633 42.4551 237.775C41.6354 236.917 40.6446 236.241 39.5469 235.791C38.4491 235.341 37.269 235.126 36.083 235.162C34.897 235.197 33.7317 235.481 32.6626 235.996C26.3286 239.271 24.6513 252.058 25.6971 258.333C25.7958 258.885 28.1834 267.212 28.3018 267.153L28.4202 267.054C28.1439 269.027 27.8677 271.237 27.6112 273.605C27.177 277.986 26.7232 282.939 26.6048 288.365C26.4066 294.202 26.545 300.046 27.0192 305.868C27.5112 312.376 28.581 318.827 30.2158 325.146V325.383C29.0911 323.607 25.7958 318.792 25.4998 318.437C21.3166 313.622 10.4244 306.755 3.79434 309.538C2.71531 310.033 1.75244 310.749 0.968253 311.64C0.18407 312.531 -0.40389 313.578 -0.757448 314.711C-1.11101 315.844 -1.22226 317.039 -1.08397 318.218C-0.94569 319.397 -0.560966 320.534 0.0452165 321.555C2.59067 326.034 8.41169 328.204 13.1277 328.895Z" fill="#A9C868"/>
    <path d="M135.585 295.35C135.704 295.35 137.874 287.023 137.933 286.471C138.821 280.156 136.809 267.429 130.376 264.331C129.294 263.843 128.121 263.589 126.934 263.585C125.747 263.581 124.572 263.827 123.487 264.307C122.402 264.788 121.43 265.491 120.634 266.373C119.839 267.254 119.239 268.293 118.872 269.422C117.155 274.158 119.346 279.979 121.931 283.965C124.969 288.661 135.585 295.35 135.585 295.35Z" fill="#A9C868"/>
    <g filter="url(#filter0_d_0_1)">
        <path d="M1354.95 72.3279C1354.95 72.3279 1345.44 70.7875 1339.88 75.2297C1337.41 77.1754 1335.35 79.6115 1333.85 82.3869C1332.35 85.1622 1331.44 88.2175 1331.16 91.3629C1330.46 97.477 1326.06 121.122 1326.06 121.122L1317.45 109.431L1307.94 117.79C1307.94 117.79 1315.95 156.361 1323.47 158.953C1330.99 161.544 1339.17 153.077 1341.11 151.549C1343.05 150.02 1354.95 72.3279 1354.95 72.3279Z" fill="#89A355"/>
        <path d="M1351.69 72.0773C1351.69 72.0773 1339.18 89.9897 1337.73 94.5634C1336.28 99.137 1325.74 107.413 1325.93 118.256C1326.02 123.201 1326.47 128.133 1327.25 133.015C1327.71 135.788 1327.66 138.621 1327.1 141.375L1322.21 165.019C1323.42 166.791 1325.01 168.271 1326.86 169.349C1328.71 170.427 1330.78 171.078 1332.91 171.253C1340.57 172.089 1360.1 176.71 1373.06 171.253L1382.39 166.679V130.102L1388.8 115.139L1407.06 85.4161C1407.06 85.4161 1397.74 78.9318 1389.03 76.1374C1379.98 73.1879 1365.19 72.9251 1351.69 72.0773Z" fill="#89A355"/>
        <path d="M1323.22 160.302C1323.23 160.024 1323.27 159.748 1323.34 159.478L1323.77 157.09C1324.17 154.988 1324.74 152.062 1325.44 148.468C1325.75 146.641 1326.35 144.694 1326.63 142.497C1326.72 141.96 1326.8 141.422 1326.88 140.861C1326.97 140.3 1326.98 139.739 1327.04 139.166C1327.13 137.974 1327.16 136.778 1327.12 135.583C1327 133.042 1326.58 130.524 1325.86 128.084C1324.96 125.451 1324.48 122.689 1324.46 119.904C1324.66 117.119 1325.35 114.393 1326.51 111.855C1327.53 109.495 1328.72 107.215 1330.08 105.036C1332.68 100.857 1335.28 97.2981 1337.43 94.2888L1342.55 87.1238L1343.94 85.1893C1344.09 84.9505 1344.26 84.73 1344.46 84.5325C1344.34 84.7839 1344.2 85.0237 1344.03 85.249C1343.71 85.7624 1343.27 86.4431 1342.74 87.2552C1341.55 88.9748 1339.89 91.4467 1337.77 94.4202C1335.64 97.3936 1333.08 101.036 1330.53 105.168C1329.19 107.337 1327.99 109.599 1326.97 111.939C1325.85 114.416 1325.18 117.072 1324.98 119.784C1325 122.512 1325.47 125.217 1326.35 127.797C1327.05 130.284 1327.45 132.846 1327.54 135.428C1327.56 136.623 1327.52 137.819 1327.42 139.01C1327.42 139.583 1327.31 140.204 1327.26 140.73C1327.22 141.255 1327.07 141.828 1326.99 142.378C1326.67 144.539 1326.05 146.486 1325.72 148.349C1324.95 151.931 1324.3 154.833 1323.85 156.923C1323.63 157.89 1323.45 158.654 1323.32 159.251C1323.33 159.604 1323.29 159.957 1323.22 160.302Z" fill="#343826"/>
        <path d="M1390.22 108.571C1390.18 108.758 1390.13 108.942 1390.06 109.12L1389.52 110.697L1387.38 116.667C1385.49 121.79 1382.81 129.027 1379.62 137.661L1379.44 138.15L1379.14 137.72C1374.76 131.212 1369.63 123.677 1364.26 115.652H1364.74L1363.24 117.193L1351.94 128.788L1352.01 128.49C1353.66 134.043 1355.65 139.49 1357.96 144.802C1359.79 149.001 1362 153.026 1364.56 156.827C1366.25 159.316 1368.11 161.682 1370.12 163.909L1371.8 165.652C1372.01 165.843 1372.19 166.05 1372.36 166.273C1372.14 166.105 1371.93 165.922 1371.73 165.724L1369.98 164.052C1367.89 161.869 1365.98 159.526 1364.25 157.042C1361.63 153.254 1359.37 149.228 1357.5 145.017C1355.15 139.699 1353.14 134.239 1351.48 128.669V128.49L1351.61 128.37C1355.18 124.788 1358.95 120.811 1362.89 116.763L1364.39 115.21L1364.67 114.936L1364.87 115.258C1370.27 123.295 1375.32 130.854 1379.69 137.362L1379.21 137.422C1382.48 128.812 1385.23 121.611 1387.18 116.5C1388.14 114.016 1388.92 112.046 1389.45 110.649C1389.71 110.004 1389.91 109.455 1390.08 109.108C1390.11 108.926 1390.16 108.746 1390.22 108.571Z" fill="#343826"/>
        <path d="M1334.82 408.044L1336.34 431.282C1336.34 431.282 1313.33 440.632 1313.2 444.955L1358.16 443.618L1357.28 407.315L1334.82 408.044Z" fill="#89A355"/>
        <path d="M1350.18 428.917C1350.62 429.033 1351 429.309 1351.25 429.691C1351.49 430.074 1351.59 430.534 1351.51 430.983C1351.41 431.425 1351.15 431.811 1350.77 432.06C1350.39 432.31 1349.93 432.403 1349.49 432.321C1349.03 432.194 1348.63 431.899 1348.37 431.493C1348.11 431.087 1348.01 430.599 1348.09 430.124C1348.24 429.667 1348.56 429.288 1348.98 429.065C1349.41 428.842 1349.9 428.793 1350.36 428.929" fill="#E0E0E0"/>
        <path d="M1358.23 445.242L1358.14 441.074L1314.9 442.639C1314.9 442.639 1312.92 443.57 1313.19 445.027L1358.23 445.242Z" fill="#343826"/>
        <path d="M1335.6 431.079C1335.6 431.294 1336.72 431.365 1337.81 432.034C1338.91 432.703 1339.53 433.622 1339.73 433.527C1339.93 433.431 1339.56 432.177 1338.21 431.377C1336.85 430.577 1335.55 430.912 1335.6 431.079Z" fill="#343826"/>
        <path d="M1330.94 433.169C1330.94 433.384 1331.87 433.73 1332.64 434.65C1333.41 435.569 1333.65 436.536 1333.83 436.524C1334.01 436.512 1334.15 435.259 1333.16 434.136C1332.18 433.014 1330.94 432.966 1330.94 433.169Z" fill="#343826"/>
        <path d="M1328.43 438.925C1328.63 438.925 1328.91 437.85 1328.31 436.656C1327.72 435.462 1326.67 435.02 1326.57 435.211C1326.48 435.402 1327.15 436.023 1327.62 437.002C1328.1 437.981 1328.22 438.901 1328.43 438.925Z" fill="#343826"/>
        <path d="M1335.84 425.741C1335.93 425.944 1336.93 425.61 1338.22 425.657C1339.5 425.705 1340.44 426.063 1340.6 425.872C1340.75 425.681 1339.75 424.917 1338.29 424.881C1336.83 424.845 1335.73 425.574 1335.84 425.741Z" fill="#343826"/>
        <path d="M1376.25 408.497L1377.57 431.748C1377.57 431.748 1354.49 440.895 1354.31 445.242L1399.3 444.286L1398.71 407.984L1376.25 408.497Z" fill="#89A355"/>
        <path d="M1391.44 429.491C1391.87 429.614 1392.25 429.894 1392.49 430.277C1392.73 430.66 1392.83 431.12 1392.76 431.568C1392.65 432.012 1392.38 432.397 1392 432.644C1391.62 432.891 1391.16 432.98 1390.71 432.894C1390.25 432.762 1389.85 432.464 1389.6 432.056C1389.34 431.648 1389.25 431.159 1389.33 430.685C1389.49 430.235 1389.82 429.865 1390.24 429.654C1390.67 429.442 1391.16 429.405 1391.61 429.55" fill="#E0E0E0"/>
        <path d="M1399.34 445.242V441.659L1356.09 442.853C1356.09 442.853 1354.1 443.773 1354.35 445.242H1399.34Z" fill="#343826"/>
        <path d="M1376.84 431.533C1376.84 431.748 1377.95 431.831 1379.04 432.512C1380.14 433.193 1380.73 434.112 1380.93 434.029C1381.14 433.945 1380.78 432.667 1379.45 431.855C1378.12 431.043 1376.78 431.33 1376.84 431.533Z" fill="#343826"/>
        <path d="M1372.16 433.587C1372.16 433.801 1373.07 434.16 1373.85 435.079C1374.62 435.999 1374.85 436.978 1375.04 436.966C1375.23 436.954 1375.37 435.7 1374.39 434.578C1373.42 433.455 1372.16 433.384 1372.16 433.587Z" fill="#343826"/>
        <path d="M1369.6 439.271C1369.8 439.271 1370.09 438.196 1369.49 437.002C1368.9 435.808 1367.87 435.354 1367.78 435.533C1367.7 435.712 1368.34 436.357 1368.8 437.348C1369.27 438.339 1369.39 439.271 1369.6 439.271Z" fill="#343826"/>
        <path d="M1377.13 426.195C1377.22 426.398 1378.22 426.075 1379.51 426.135C1380.79 426.195 1381.73 426.565 1381.89 426.374C1382.04 426.183 1381.05 425.407 1379.59 425.359C1378.13 425.311 1377.01 426.028 1377.13 426.195Z" fill="#343826"/>
        <path d="M1383.12 165.891C1383.12 165.891 1394.58 177.964 1400.59 192.819C1406.61 207.675 1404.02 279.253 1404.02 279.253L1402.76 316.762C1402.76 316.762 1404.58 349.004 1403.19 371.992C1401.79 394.979 1400.24 420.451 1400.24 420.451L1375.26 421.645L1348.71 226.71L1355.33 316.606C1359.55 339.534 1359.05 379.981 1358.23 421.609H1331.78C1331.78 421.609 1322.67 359.381 1320.59 344.598C1318.21 327.879 1311.32 281.952 1311.32 281.952C1311.32 281.952 1305.99 237.982 1307.84 214.302C1309.7 190.622 1323.74 157.508 1324.21 156.111L1380.7 166.321" fill="#343826"/>
        <path d="M1386 159.586L1392.63 177.295C1392.63 177.295 1441.88 246.282 1440.45 252.038C1439.01 257.794 1412.18 280.065 1404.3 276.47C1396.43 272.876 1376.04 258.14 1369.23 243.428C1362.43 228.716 1343.07 187.374 1343.07 187.374L1336.99 175.874L1343.78 171.205L1386 159.586Z" fill="#455A64"/>
        <path d="M1323.77 157.126C1329.71 160.338 1329.1 170.393 1335.07 173.605C1325.1 187.613 1321.7 205.239 1320.34 222.387C1318.99 239.535 1319.4 256.91 1315.98 273.736L1303.62 272.864C1301.53 239.697 1305.09 206.415 1314.16 174.453C1315.98 168.006 1319.27 162.074 1323.77 157.126Z" fill="#455A64"/>
        <path d="M1371.91 186.108C1372.97 185.983 1374.02 185.742 1375.03 185.392C1377.49 184.652 1379.91 183.771 1382.27 182.753C1384.63 181.736 1386.94 180.575 1389.17 179.277C1390.11 178.787 1391.01 178.195 1391.83 177.51C1390.84 177.89 1389.88 178.353 1388.96 178.895C1387.21 179.803 1384.78 180.997 1382.03 182.191C1379.28 183.385 1376.74 184.317 1374.89 184.974C1373.87 185.274 1372.87 185.653 1371.91 186.108Z" fill="#343826"/>
        <g opacity="0.2">
            <path d="M1403.87 238.651L1405.06 238.735C1400.9 242.895 1395.58 245.691 1389.8 246.757C1384.02 247.823 1378.06 247.108 1372.69 244.706C1369.12 242.998 1365.56 239.857 1365.65 235.857C1377.92 240.201 1391.11 241.166 1403.87 238.651Z" fill="#455A64"/>
        </g>
        <path d="M1342.38 175.898C1346.98 175.05 1355.82 177.474 1359.03 180.866C1362.24 184.257 1364.2 188.675 1365.8 193.094C1369.26 202.647 1371.74 213.275 1379.21 220.142C1386.26 226.602 1396.29 228.322 1405.72 229.779C1405.97 233.277 1405.93 237.445 1403.07 239.451C1402.19 240.009 1401.23 240.413 1400.22 240.645C1397.42 241.418 1394.55 241.925 1391.65 242.162C1378.22 243.273 1364 237.851 1356.11 226.877C1346.15 213.001 1345.41 196.318 1339.71 180.173" fill="#455A64"/>
        <path d="M1339.8 180.137C1339.83 180.312 1339.88 180.484 1339.94 180.65L1340.39 182.119C1340.81 183.409 1341.37 185.332 1342.03 187.827C1342.7 190.323 1343.46 193.38 1344.32 196.939C1345.17 200.497 1346.15 204.57 1347.51 208.988C1348.92 213.84 1350.9 218.512 1353.38 222.912C1354.76 225.369 1356.4 227.674 1358.26 229.79C1360.25 232.024 1362.51 233.994 1365 235.654C1370.37 239.181 1376.47 241.424 1382.84 242.21C1386.2 242.634 1389.6 242.67 1392.97 242.317C1394.69 242.129 1396.4 241.846 1398.1 241.469C1398.94 241.278 1399.79 241.063 1400.63 240.824C1401.51 240.597 1402.35 240.248 1403.13 239.785C1403.93 239.252 1404.59 238.525 1405.05 237.672C1405.49 236.847 1405.79 235.955 1405.93 235.033C1406.2 233.278 1406.25 231.496 1406.06 229.731V229.48H1405.83C1399.51 228.513 1393.35 227.462 1387.84 225.145C1385.15 224.049 1382.63 222.556 1380.38 220.715C1378.25 218.921 1376.4 216.816 1374.89 214.469C1372.23 210.065 1370.11 205.353 1368.58 200.438C1367.22 196.147 1365.63 191.933 1363.82 187.815C1362.99 186.042 1361.98 184.355 1360.82 182.776C1360.28 182.054 1359.69 181.368 1359.06 180.722C1358.46 180.129 1357.78 179.608 1357.05 179.17C1354.65 177.773 1352.04 176.785 1349.31 176.244C1347.61 175.859 1345.87 175.679 1344.13 175.707C1343.52 175.715 1342.92 175.792 1342.33 175.933C1342.33 175.933 1342.94 175.838 1344.13 175.826C1345.86 175.847 1347.58 176.059 1349.27 176.459C1351.95 177.039 1354.52 178.047 1356.89 179.444C1357.59 179.879 1358.24 180.392 1358.83 180.973C1359.44 181.613 1360 182.291 1360.53 183.003C1361.66 184.568 1362.64 186.24 1363.45 187.995C1365.22 192.106 1366.76 196.312 1368.07 200.593C1369.6 205.559 1371.73 210.319 1374.41 214.768C1375.93 217.167 1377.81 219.321 1379.98 221.157C1382.28 223.04 1384.84 224.566 1387.58 225.682C1393.17 228.071 1399.38 229.11 1405.7 230.089L1405.43 229.802C1405.6 231.52 1405.56 233.253 1405.31 234.961C1405.22 235.822 1404.94 236.653 1404.5 237.399C1404.06 238.146 1403.47 238.792 1402.77 239.296C1401.25 240.072 1399.61 240.616 1397.93 240.908C1396.26 241.275 1394.57 241.554 1392.88 241.744C1389.55 242.095 1386.2 242.063 1382.89 241.648C1376.6 240.882 1370.56 238.685 1365.25 235.224C1362.8 233.594 1360.57 231.66 1358.6 229.468C1356.76 227.383 1355.13 225.11 1353.76 222.685C1351.26 218.331 1349.26 213.704 1347.81 208.892C1346.43 204.498 1345.44 200.45 1344.54 196.951C1343.65 193.452 1342.88 190.323 1342.17 187.851C1341.45 185.379 1340.86 183.445 1340.41 182.167C1340.19 181.546 1340.01 181.068 1339.89 180.71C1339.88 180.516 1339.85 180.324 1339.8 180.137Z" fill="#343826"/>
        <path d="M1395.23 241.517C1394.43 239.336 1394.13 236.999 1394.37 234.687C1394.61 232.374 1395.38 230.147 1396.61 228.178C1396.06 228.617 1395.61 229.177 1395.31 229.814C1394.47 231.279 1393.94 232.907 1393.77 234.591C1393.59 236.285 1393.77 237.997 1394.29 239.618C1394.45 240.316 1394.77 240.966 1395.23 241.517Z" fill="#343826"/>
        <path d="M1394.88 232.907C1396.61 233.334 1398.38 233.558 1400.15 233.576C1401.92 233.776 1403.69 233.776 1405.46 233.576C1401.97 232.94 1398.42 232.7 1394.88 232.86V232.907Z" fill="#343826"/>
        <path d="M1393.9 236.764C1395.7 237.113 1397.54 237.258 1399.37 237.194C1401.2 237.331 1403.04 237.267 1404.85 237.003C1403.05 236.653 1401.21 236.508 1399.38 236.573C1397.55 236.437 1395.71 236.501 1393.9 236.764Z" fill="#343826"/>
        <path d="M1331.06 178.943C1322.82 186.418 1319.74 198.276 1320.03 209.418C1320.33 220.56 1323.6 231.403 1325.98 242.269C1328.36 253.136 1330.2 264.553 1327.54 275.384L1338.11 276.912C1342.41 272.282 1345.67 266.786 1347.69 260.791C1349.71 254.795 1350.44 248.437 1349.82 242.138C1348.74 231.737 1344.04 222.136 1340.67 212.284C1337.29 202.432 1335.3 191.243 1339.55 181.689" fill="#455A64"/>
        <path d="M1339.61 181.606C1339.52 181.756 1339.45 181.912 1339.38 182.072L1338.8 183.469C1338.15 185.298 1337.67 187.185 1337.38 189.105C1336.98 192.163 1336.94 195.259 1337.29 198.324C1337.76 202.381 1338.63 206.381 1339.88 210.266C1341.24 214.601 1343.07 219.222 1344.92 224.226C1347.01 229.508 1348.52 235.001 1349.42 240.61C1350.26 246.848 1349.75 253.196 1347.91 259.215C1345.96 265.714 1342.55 271.676 1337.94 276.638L1338.22 276.542L1333.02 275.79L1327.64 275.025L1327.89 275.396C1329.38 268.732 1329.64 261.854 1328.68 255.095C1327.81 248.837 1326.57 242.637 1324.97 236.526C1323.54 230.686 1322.19 225.145 1321.33 219.891C1320.48 215.04 1320.13 210.114 1320.29 205.191C1320.48 198.036 1322.5 191.051 1326.17 184.914C1327.19 183.284 1328.36 181.753 1329.67 180.34C1330.11 179.874 1330.46 179.528 1330.71 179.265C1330.84 179.153 1330.96 179.025 1331.06 178.883L1330.68 179.218L1329.57 180.257C1328.24 181.646 1327.04 183.162 1326 184.782C1322.25 190.9 1320.15 197.899 1319.91 205.083C1319.71 210.039 1320.04 215.003 1320.88 219.891C1321.71 225.169 1323.05 230.734 1324.45 236.609C1326.02 242.703 1327.23 248.884 1328.1 255.119C1329.05 261.826 1328.78 268.652 1327.31 275.264L1327.23 275.599H1327.56L1332.95 276.363L1338.13 277.115H1338.3L1338.41 276.996C1343.08 271.964 1346.53 265.921 1348.49 259.334C1350.34 253.231 1350.85 246.798 1349.98 240.478C1349.06 234.834 1347.52 229.307 1345.4 223.999C1343.52 218.995 1341.67 214.386 1340.29 210.075C1339.02 206.217 1338.14 202.246 1337.63 198.217C1337.27 195.179 1337.27 192.108 1337.63 189.07C1337.89 187.155 1338.33 185.268 1338.93 183.433L1339.45 182.024C1339.56 181.785 1339.61 181.606 1339.61 181.606Z" fill="#343826"/>
        <path d="M1329.32 266.798C1331.78 266.654 1334.25 266.694 1336.71 266.917C1339.13 267.352 1341.51 267.963 1343.84 268.744C1343.26 268.28 1342.61 267.924 1341.9 267.693C1340.26 267.011 1338.53 266.545 1336.77 266.308C1335 266.08 1333.21 266.08 1331.45 266.308C1330.72 266.335 1329.99 266.501 1329.32 266.798Z" fill="#343826"/>
        <path d="M1335.48 276.578C1336.48 275.286 1337.31 273.874 1337.96 272.374C1338.79 270.97 1339.44 269.465 1339.89 267.896C1338.9 269.183 1338.07 270.592 1337.42 272.088C1336.59 273.497 1335.94 275.006 1335.48 276.578Z" fill="#343826"/>
        <path d="M1329.95 275.79C1331.66 272.874 1333 269.758 1333.95 266.511C1332.25 269.433 1330.91 272.548 1329.95 275.79Z" fill="#343826"/>
        <path d="M1345.13 175.432C1345.2 175.432 1345.38 175.193 1345.46 174.716C1345.55 174.084 1345.46 173.44 1345.21 172.855C1344.96 172.269 1344.55 171.765 1344.03 171.396C1343.62 171.133 1343.32 171.085 1343.28 171.157C1343.25 171.229 1344.15 171.898 1344.65 173.104C1344.89 173.862 1345.04 174.642 1345.13 175.432Z" fill="#343826"/>
        <path d="M1331.38 172.841C1332.81 170.584 1336.14 169.832 1338.82 169.509C1340.45 169.452 1342.04 170.009 1343.28 171.07C1344.51 172.131 1345.31 173.619 1345.51 175.241C1345.61 176.876 1345.14 178.495 1344.2 179.829C1343.25 181.163 1341.88 182.131 1340.31 182.573C1338.72 182.948 1337.06 182.829 1335.54 182.231C1334.02 181.634 1332.72 180.587 1331.81 179.23C1331.15 178.311 1330.76 177.226 1330.68 176.097C1330.61 174.967 1330.85 173.839 1331.38 172.841Z" fill="#455A64"/>
        <path d="M1337.31 170.763C1336.69 171.173 1336.2 171.753 1335.9 172.435C1335.03 174.036 1334.81 175.912 1335.28 177.673C1335.75 179.434 1336.88 180.946 1338.43 181.893C1339.03 182.334 1339.74 182.591 1340.48 182.633C1340.48 182.538 1339.71 182.299 1338.67 181.534C1337.29 180.568 1336.3 179.145 1335.86 177.516C1335.43 175.886 1335.58 174.154 1336.29 172.626C1336.81 171.444 1337.42 170.835 1337.31 170.763Z" fill="#343826"/>
        <path d="M1332.04 171.993C1331.99 171.993 1331.58 172.315 1331.19 173.104C1330.71 174.152 1330.52 175.311 1330.64 176.459C1330.74 177.6 1331.15 178.69 1331.83 179.612C1332.38 180.304 1332.85 180.579 1332.9 180.531C1332.95 180.483 1332.6 180.065 1332.19 179.337C1331.66 178.42 1331.32 177.404 1331.2 176.352C1331.1 175.3 1331.22 174.239 1331.55 173.235C1331.85 172.494 1332.13 172.053 1332.04 171.993Z" fill="#343826"/>
        <g opacity="0.2">
            <path d="M1331.24 178.943C1332.25 180.083 1333.48 180.999 1334.86 181.633C1336.25 182.266 1337.74 182.602 1339.26 182.621C1338.85 183.4 1338.26 184.068 1337.54 184.571C1336.81 185.073 1335.98 185.396 1335.11 185.511C1334.33 185.565 1333.54 185.398 1332.84 185.03C1332.14 184.662 1331.56 184.106 1331.16 183.425C1330.76 182.744 1330.55 181.965 1330.57 181.173C1330.58 180.382 1330.81 179.61 1331.24 178.943Z" fill="#455A64"/>
        </g>
        <g opacity="0.2">
            <path d="M1368.86 189.284C1370.07 188.037 1371.6 187.145 1373.28 186.705C1379.4 184.484 1386.01 180.734 1392.14 178.465C1386.55 183.445 1380.5 189.308 1374.09 193.154C1372.54 194.085 1370.52 194.969 1369.04 193.918C1367.57 192.867 1367.77 190.634 1368.86 189.284Z" fill="#455A64"/>
        </g>
        <g opacity="0.2">
            <path d="M1318.12 200.342C1319.08 192.963 1322.48 185.666 1328.42 181.236C1325.22 187.075 1322 193.01 1320.57 199.518C1319.01 206.683 1320.15 211.221 1320.87 218.506L1320.18 222.088C1318.02 215.056 1317.32 207.656 1318.12 200.342Z" fill="#455A64"/>
        </g>
        <path d="M1372.17 194.396C1372.51 194.289 1372.83 194.132 1373.12 193.93C1373.72 193.596 1374.55 193.082 1375.56 192.413C1378.2 190.66 1380.73 188.738 1383.12 186.657C1385.52 184.579 1387.79 182.35 1389.9 179.982C1390.71 179.063 1391.34 178.31 1391.76 177.773C1392.17 177.235 1392.39 176.925 1392.35 176.889C1391.37 177.765 1390.45 178.698 1389.58 179.684C1387.9 181.427 1385.51 183.768 1382.73 186.192C1379.95 188.616 1377.28 190.634 1375.32 192.055C1374.23 192.771 1373.17 193.552 1372.17 194.396Z" fill="#343826"/>
        <path d="M1341.92 15.7127C1340.13 12.5243 1341.24 8.23723 1343.87 5.71755C1346.65 3.29535 1350.28 2.07632 1353.95 2.32611C1357.6 2.58258 1361.2 3.3255 1364.65 4.53532C1365.96 2.83144 1367.72 1.52483 1369.72 0.760284C1371.72 -0.00426526 1373.9 -0.196892 1376 0.203744C1378.11 0.60438 1380.06 1.58263 1381.65 3.0301C1383.24 4.47757 1384.39 6.33772 1384.99 8.40442C1386.24 7.90559 1387.6 7.75849 1388.92 7.979C1390.25 8.1995 1391.49 8.77922 1392.51 9.65559C1393.53 10.532 1394.29 11.6717 1394.72 12.9517C1395.14 14.2318 1395.21 15.6035 1394.91 16.9188L1379.45 24.7286L1365.84 58.1653C1363.5 60.6619 1360.35 62.2322 1356.95 62.591C1353.55 62.9499 1350.14 62.0734 1347.33 60.1208C1344.52 58.1683 1342.51 55.2691 1341.64 51.9499C1340.78 48.6308 1341.14 45.1118 1342.64 42.0321C1341.54 41.274 1340.58 40.3425 1339.78 39.2736C1338.26 38.6207 1336.88 37.6725 1335.73 36.4838C1334.58 35.2951 1333.68 33.8892 1333.07 32.3474C1330.71 25.7079 1335.04 17.4323 1341.92 15.7127Z" fill="#343826"/>
        <path d="M1361.1 76.0777C1361.16 74.2231 1361.32 72.3732 1361.59 70.5368C1361.59 70.5368 1351.58 68.0648 1350.51 54.6186C1349.99 47.9312 1351.16 37.136 1352.39 28.3469C1353.51 20.4177 1359.53 11.0554 1367.36 12.5123L1391.57 20.7043C1393.94 21.1461 1394.62 23.2479 1394.38 25.672L1394.49 26.8662L1390.4 64.8048L1389.13 76.1971C1388.38 83.3621 1381.93 90.742 1374.71 90.6346C1372.84 90.6563 1370.99 90.2876 1369.27 89.552C1367.55 88.8163 1366 87.7297 1364.72 86.3611C1363.44 84.9925 1362.46 83.3717 1361.83 81.6014C1361.21 79.8312 1360.96 77.9502 1361.1 76.0777Z" fill="#FFBE9D"/>
        <path d="M1354.93 40.4198C1354.89 40.8624 1355.02 41.303 1355.3 41.6469C1355.58 41.9909 1355.98 42.2106 1356.42 42.2588C1356.64 42.2943 1356.86 42.286 1357.07 42.2344C1357.28 42.1828 1357.48 42.089 1357.65 41.9586C1357.83 41.8282 1357.97 41.6638 1358.08 41.4754C1358.19 41.2869 1358.26 41.0782 1358.29 40.8617C1358.33 40.4191 1358.2 39.9785 1357.92 39.6346C1357.64 39.2906 1357.23 39.0709 1356.79 39.0227C1356.58 38.9872 1356.36 38.9955 1356.15 39.0471C1355.94 39.0987 1355.74 39.1925 1355.56 39.3229C1355.39 39.4533 1355.24 39.6177 1355.13 39.8062C1355.02 39.9946 1354.95 40.2033 1354.93 40.4198Z" fill="#343826"/>
        <path d="M1354.62 35.488C1354.81 35.7268 1356.17 34.8789 1357.99 35.0222C1359.81 35.1655 1361.09 36.2164 1361.3 35.9776C1361.51 35.7387 1361.23 35.476 1360.67 34.9984C1359.92 34.3898 1359.01 34.0269 1358.05 33.9594C1357.1 33.8814 1356.15 34.1072 1355.34 34.6043C1354.75 34.9984 1354.52 35.3805 1354.62 35.488Z" fill="#343826"/>
        <path d="M1370.65 41.3871C1370.61 41.8297 1370.74 42.2703 1371.02 42.6143C1371.3 42.9582 1371.71 43.1779 1372.15 43.2262C1372.36 43.2599 1372.58 43.2504 1372.79 43.1981C1373 43.1458 1373.2 43.0519 1373.37 42.9217C1373.55 42.7916 1373.69 42.6279 1373.8 42.4403C1373.91 42.2526 1373.99 42.0448 1374.01 41.829C1374.05 41.3851 1373.92 40.9431 1373.64 40.5972C1373.36 40.2514 1372.96 40.0292 1372.52 39.978C1372.3 39.946 1372.08 39.9572 1371.87 40.0109C1371.66 40.0646 1371.46 40.1597 1371.29 40.2908C1371.12 40.4219 1370.97 40.5863 1370.86 40.7745C1370.75 40.9627 1370.68 41.1709 1370.65 41.3871Z" fill="#343826"/>
        <path d="M1372.07 36.503C1372.26 36.7418 1373.62 35.882 1375.45 36.0373C1377.28 36.1925 1378.53 37.2314 1378.76 36.9926C1378.98 36.7538 1378.67 36.491 1378.13 36.0134C1377.38 35.4079 1376.46 35.0456 1375.5 34.9745C1374.55 34.8964 1373.6 35.1222 1372.79 35.6193C1372.19 36.0134 1371.98 36.3955 1372.07 36.503Z" fill="#343826"/>
        <path d="M1364.54 48.9581C1363.6 48.577 1362.61 48.3201 1361.61 48.1938C1361.15 48.1102 1360.72 47.9788 1360.66 47.6564C1360.66 47.1707 1360.8 46.6958 1361.07 46.2951C1361.61 45.1964 1362.16 44.0381 1362.74 42.832C1365.05 37.9121 1366.75 33.8519 1366.56 33.7563C1366.37 33.6608 1364.32 37.5777 1362.01 42.5096C1361.45 43.7037 1360.92 44.8979 1360.42 45.9846C1360.08 46.5236 1359.94 47.1671 1360.03 47.7997C1360.08 47.971 1360.18 48.1276 1360.3 48.2579C1360.42 48.3882 1360.57 48.4887 1360.74 48.552C1361 48.6348 1361.26 48.6908 1361.53 48.7192C1362.52 48.9252 1363.53 49.0054 1364.54 48.9581Z" fill="#343826"/>
        <path d="M1361.59 70.5368C1367.8 71.123 1374.06 69.9612 1379.66 67.1812C1379.66 67.1812 1374.47 76.209 1361.34 73.9282L1361.59 70.5368Z" fill="#65463C"/>
        <path d="M1372.44 31.5354C1372.62 32.025 1374.45 31.7742 1376.61 32.025C1378.76 32.2757 1380.49 32.837 1380.77 32.3832C1380.9 32.1683 1380.59 31.7025 1379.89 31.1891C1378.96 30.5929 1377.9 30.2285 1376.8 30.1263C1375.69 30.0023 1374.58 30.1414 1373.54 30.5323C1372.75 30.8666 1372.36 31.2965 1372.44 31.5354Z" fill="#343826"/>
        <path d="M1354.98 30.1381C1355.33 30.5799 1356.85 30.2695 1358.64 30.3889C1360.42 30.5083 1361.92 30.9263 1362.3 30.5202C1362.47 30.3172 1362.3 29.8873 1361.63 29.4335C1360.76 28.8729 1359.75 28.5593 1358.72 28.526C1357.69 28.4519 1356.66 28.6625 1355.73 29.135C1355.07 29.5052 1354.83 29.9232 1354.98 30.1381Z" fill="#343826"/>
        <path d="M1384.86 12.8348C1384.76 14.1691 1384.37 15.4653 1383.72 16.6318C1383.07 17.7982 1382.17 18.8063 1381.08 19.5846C1380 20.3628 1378.76 20.8922 1377.45 21.1353C1376.14 21.3783 1374.79 21.3291 1373.5 20.991C1371.52 20.4655 1369.38 19.2714 1367.56 20.2148C1365.74 21.1582 1365.34 24.0003 1363.61 25.29C1361.12 27.1529 1357.55 24.9556 1354.53 25.6124C1352.16 26.1259 1350.61 28.2037 1348.94 29.9353C1347.28 31.6668 1344.88 33.255 1342.65 32.3952C1342.87 30.3307 1343.33 28.299 1344.02 26.3408C1344.71 24.3531 1346.06 22.6658 1347.85 21.5642C1348.9 21.1286 1349.92 20.6342 1350.91 20.0834C1352.92 18.6862 1353.56 16.0471 1354.89 13.9932C1355.76 12.6681 1356.94 11.5715 1358.32 10.7947C1359.7 10.0178 1361.24 9.5832 1362.82 9.52698C1365.45 9.45533 1368.07 10.4465 1370.66 10.0047C1372.56 9.67029 1374.3 8.57166 1376.23 8.35671C1379.97 7.92681 1383.21 10.8525 1385.74 13.7066" fill="#343826"/>
        <path d="M1372.62 17.2174C1374.31 16.8711 1377.78 16.0233 1378.78 14.6739C1379.79 13.1866 1381.17 11.9942 1382.79 11.2181C1384.41 10.442 1386.2 10.1099 1387.99 10.2554C1389.77 10.5331 1391.42 11.3799 1392.68 12.6704C1393.95 13.9609 1394.77 15.6264 1395.02 17.4204C1397.17 17.6621 1399.23 18.4842 1400.96 19.7999C1402.69 21.1156 1404.03 22.8763 1404.85 24.8959C1405.69 27.0102 1406 29.2968 1405.77 31.5598C1405.53 33.8227 1404.75 35.9943 1403.49 37.8884C1402.89 38.8838 1402.36 39.9213 1401.9 40.9932C1402.84 41.8958 1403.69 42.8876 1404.45 43.9548C1407.95 49.6629 1400.88 52.9588 1400.88 52.9588C1401.39 57.0428 1397.64 57.5085 1395.24 57.8071C1392.84 58.1056 1392.33 64.7093 1390.48 64.7093L1389.75 44.6235C1389.48 44.7752 1389.19 44.8688 1388.89 44.8982C1384.38 45.5669 1384.44 36.8137 1385.63 34.4015C1384.06 32.8983 1382.68 31.201 1381.53 29.3501C1380.31 26.4567 1379.84 23.3028 1380.16 20.179C1378.53 20.1192 1371.91 17.3727 1372.62 17.2174Z" fill="#343826"/>
        <path d="M1389.19 45.7698C1389.26 45.1084 1389.49 44.4753 1389.87 43.9312C1390.25 43.3871 1390.76 42.9503 1391.36 42.6626C1391.96 42.3749 1392.62 42.246 1393.28 42.2882C1393.94 42.3305 1394.58 42.5424 1395.14 42.9038C1396.42 43.7756 1397.32 45.4235 1396.98 48.4089C1396.05 56.3859 1388.26 53.8065 1388.29 53.5677C1388.31 53.3289 1388.77 49.0657 1389.19 45.7698Z" fill="#FFBE9D"/>
        <path d="M1390.99 50.833C1390.99 50.833 1391.13 50.9525 1391.34 51.0838C1391.65 51.2623 1392.02 51.3136 1392.37 51.2271C1392.93 50.959 1393.4 50.5494 1393.74 50.0398C1394.08 49.5302 1394.28 48.9387 1394.32 48.3253C1394.42 47.6453 1394.37 46.9529 1394.17 46.2952C1394.13 46.0367 1394.02 45.793 1393.86 45.585C1393.7 45.377 1393.49 45.211 1393.25 45.1011C1393.1 45.0382 1392.93 45.0312 1392.77 45.0813C1392.61 45.1315 1392.48 45.2356 1392.39 45.3757C1392.26 45.5907 1392.29 45.7578 1392.24 45.7698C1392.2 45.7817 1392.09 45.6145 1392.24 45.2921C1392.31 45.0988 1392.44 44.9342 1392.61 44.8264C1392.73 44.757 1392.86 44.7117 1392.99 44.6933C1393.13 44.6748 1393.27 44.6835 1393.4 44.7189C1393.72 44.8207 1394 45.0024 1394.23 45.2469C1394.46 45.4914 1394.62 45.7906 1394.71 46.1161C1394.96 46.8477 1395.03 47.6305 1394.92 48.3969C1394.88 49.1067 1394.63 49.7886 1394.21 50.3592C1393.78 50.9298 1393.21 51.3642 1392.54 51.6092C1392.33 51.636 1392.11 51.6168 1391.91 51.5529C1391.7 51.4891 1391.51 51.3821 1391.35 51.2391C1390.94 51.0241 1390.94 50.845 1390.99 50.833Z" fill="#65463C"/>
        <path d="M1346.54 40.42C1346.54 40.3484 1345.78 39.9662 1344.64 38.8915C1343.06 37.3455 1341.95 35.3708 1341.46 33.2073C1341.11 31.7282 1341.06 30.1919 1341.32 28.6933C1341.62 26.9871 1342.37 25.3938 1343.5 24.0838C1344.81 22.5982 1346.49 21.4854 1348.37 20.8567C1350.25 20.2281 1352.26 20.1055 1354.2 20.5013C1354.58 20.573 1354.93 20.7043 1355.3 20.8118C1355.66 20.9193 1355.97 21.0865 1356.29 21.2178L1356.81 21.4208V20.8954C1356.7 19.9631 1356.93 19.0226 1357.45 18.2444C1357.97 17.4852 1358.65 16.8496 1359.45 16.3815C1360.98 15.4909 1362.76 15.1223 1364.52 15.3306C1367.93 15.653 1370.91 16.8114 1373.6 16.7636C1375.71 16.8515 1377.78 16.1446 1379.4 14.7813C1379.82 14.3953 1380.16 13.9384 1380.41 13.4319C1380.5 13.2578 1380.57 13.0733 1380.61 12.8826C1380.25 13.5283 1379.79 14.1126 1379.25 14.6141C1377.63 15.8424 1375.62 16.452 1373.6 16.3337C1372.19 16.2585 1370.8 16.0466 1369.44 15.7008C1367.84 15.272 1366.21 14.9607 1364.57 14.7693C1363.66 14.6727 1362.74 14.7008 1361.84 14.8529C1360.88 15.0259 1359.97 15.3655 1359.14 15.856C1358.26 16.3667 1357.5 17.0685 1356.92 17.91C1356.32 18.8127 1356.06 19.9006 1356.19 20.979L1356.63 20.6566C1356.28 20.5133 1355.93 20.3461 1355.56 20.2147C1355.17 20.0868 1354.77 19.9792 1354.37 19.8923C1352.32 19.4701 1350.2 19.6001 1348.22 20.2693C1346.24 20.9385 1344.47 22.1228 1343.09 23.7017C1341.91 25.1031 1341.13 26.799 1340.83 28.6097C1340.55 30.5222 1340.73 32.476 1341.37 34.2998C1342.01 36.1236 1343.09 37.7617 1344.51 39.0706C1344.96 39.4831 1345.47 39.8398 1346.01 40.1334C1346.18 40.2454 1346.36 40.3414 1346.54 40.42Z" fill="#455A64"/>
        <path d="M1344.56 13.0377C1345.28 12.5111 1346.08 12.1077 1346.93 11.8435C1347.9 11.5753 1348.92 11.5345 1349.91 11.7241C1351.18 11.9498 1352.34 12.5922 1353.21 13.5512L1353.57 13.9333L1353.69 13.4318C1354.12 11.8761 1354.96 10.4642 1356.11 9.34129C1357.27 8.21838 1358.7 7.42506 1360.27 7.04299C1362.74 6.61931 1365.29 7.01312 1367.53 8.1655C1369.44 9.08495 1371.43 9.8091 1373.48 10.3269C1374.88 10.6783 1376.35 10.6783 1377.75 10.3269C1378.12 10.2117 1378.48 10.0597 1378.82 9.87316C1379.04 9.72986 1379.16 9.64627 1379.15 9.63433C1379.14 9.62239 1378.64 9.86122 1377.68 10.0881C1376.32 10.3499 1374.91 10.3009 1373.57 9.94481C1371.57 9.36851 1369.63 8.60901 1367.77 7.6759C1366.62 7.16161 1365.43 6.76164 1364.2 6.48174C1362.86 6.17129 1361.47 6.17129 1360.12 6.48174C1358.45 6.88723 1356.92 7.73981 1355.69 8.94885C1354.47 10.1579 1353.59 11.6782 1353.15 13.3482L1353.62 13.2288C1352.65 12.203 1351.37 11.5376 1349.98 11.342C1348.93 11.1695 1347.85 11.2555 1346.84 11.5928C1346.19 11.8051 1345.59 12.1283 1345.06 12.5481C1344.75 12.8228 1344.56 13.0138 1344.56 13.0377Z" fill="#455A64"/>
        <path d="M1365.68 52.8273C1365.93 52.5412 1366.24 52.3138 1366.59 52.1612C1366.94 52.0086 1367.32 51.9343 1367.7 51.9437C1368.13 51.9749 1368.55 52.0976 1368.93 52.3034C1369.31 52.5093 1369.64 52.7937 1369.9 53.1378L1369.98 53.2334C1370.19 53.48 1370.32 53.7917 1370.33 54.117C1370.31 54.4764 1370.21 54.8271 1370.03 55.1376C1369.85 55.4482 1369.6 55.7089 1369.29 55.8964C1368.83 56.2291 1368.27 56.4079 1367.7 56.4079C1367.13 56.4079 1366.57 56.2291 1366.11 55.8964C1365.66 55.533 1365.37 55.015 1365.29 54.4461C1365.21 53.8771 1365.35 53.299 1365.68 52.8273Z" fill="#65463C"/>
        <path d="M1370.4 51.3345C1370.29 51.3345 1370.14 51.7166 1369.74 52.2779C1369.26 53.0048 1368.56 53.5639 1367.74 53.88C1366.93 54.196 1366.04 54.2537 1365.19 54.0452C1364.52 53.9019 1364.13 53.6989 1364.07 53.7944C1364.01 53.89 1364.33 54.2363 1365.05 54.5348C1366 54.8985 1367.05 54.8985 1368 54.5348C1368.95 54.1628 1369.73 53.4416 1370.17 52.5167C1370.5 51.836 1370.48 51.3464 1370.4 51.3345Z" fill="#343826"/>
        <path d="M1400.99 29.3023C1400.99 29.3023 1401.12 29.2307 1401.34 29.0396C1401.66 28.7645 1401.96 28.4694 1402.24 28.1559C1403.28 26.9925 1404.02 25.5839 1404.38 24.06C1404.62 22.9953 1404.62 21.8884 1404.38 20.8238C1404.11 19.5918 1403.49 18.4636 1402.6 17.5756C1402.11 17.0803 1401.52 16.6898 1400.87 16.4273C1400.22 16.1648 1399.52 16.0355 1398.82 16.0471C1398.07 16.0285 1397.32 16.1872 1396.63 16.5106C1395.95 16.834 1395.35 17.3132 1394.89 17.91L1395.25 18.113V18.0175C1396.28 15.3108 1396.2 12.305 1395.03 9.65833C1394.54 8.58891 1393.79 7.65607 1392.86 6.94036C1391.93 6.22466 1390.83 5.74761 1389.68 5.55041C1388.89 5.45267 1388.1 5.51439 1387.34 5.73189C1386.58 5.94938 1385.88 6.31818 1385.26 6.81622C1384.94 7.08633 1384.64 7.3996 1384.4 7.74767C1384.31 7.86998 1384.24 8.00239 1384.19 8.14174C1384.54 7.69801 1384.94 7.29717 1385.38 6.94758C1386.62 6.04995 1388.14 5.66101 1389.65 5.86088C1390.75 6.06755 1391.79 6.53816 1392.67 7.23262C1393.55 7.92708 1394.25 8.82483 1394.71 9.8494C1395.81 12.4058 1395.88 15.2948 1394.89 17.8981V17.9817L1394.48 19.1758L1395.24 18.125C1395.67 17.5869 1396.21 17.1534 1396.83 16.8575C1397.45 16.5616 1398.13 16.4111 1398.81 16.4173C1399.46 16.4073 1400.1 16.5256 1400.7 16.7654C1401.3 17.0052 1401.84 17.3617 1402.31 17.8145C1403.15 18.6507 1403.75 19.7106 1404.02 20.8715C1404.24 21.8902 1404.24 22.9458 1404.02 23.9644C1403.69 25.4537 1403.01 26.8419 1402.03 28.0126C1401.43 28.8844 1400.96 29.2785 1400.99 29.3023Z" fill="#343826"/>
        <path d="M1287.01 102.624L1294.71 131.857C1294.91 132.65 1295.37 133.351 1296.02 133.844C1296.67 134.337 1297.47 134.592 1298.28 134.568L1338.19 133.78C1338.73 133.779 1339.26 133.657 1339.74 133.423C1340.22 133.189 1340.65 132.849 1340.98 132.428C1341.31 132.007 1341.55 131.515 1341.67 130.991C1341.79 130.466 1341.79 129.921 1341.67 129.397L1335.79 101.394C1335.63 100.568 1335.18 99.8258 1334.53 99.2974C1333.88 98.769 1333.06 98.4881 1332.22 98.5039H1290.17C1289.67 98.5014 1289.17 98.6151 1288.72 98.8361C1288.27 99.0571 1287.88 99.3794 1287.57 99.778C1287.27 100.177 1287.06 100.641 1286.96 101.134C1286.86 101.628 1286.88 102.138 1287.01 102.624Z" fill="#343826"/>
        <path d="M1283.65 109.228C1283.26 108.712 1283.05 108.083 1283.05 107.436C1283.05 106.789 1283.26 106.16 1283.65 105.645C1284.07 105.139 1284.6 104.732 1285.19 104.451C1285.78 104.17 1286.42 104.024 1287.08 104.021C1288.39 104.027 1289.69 104.295 1290.9 104.809C1292.4 105.391 1293.85 106.119 1295.21 106.983C1295.73 107.23 1296.18 107.581 1296.55 108.015C1296.92 108.449 1297.2 108.955 1297.37 109.502C1297.56 110.637 1296.33 111.891 1295.34 111.353C1296.04 111.646 1296.66 112.101 1297.14 112.681C1297.63 113.26 1297.97 113.947 1298.14 114.685C1298.34 116.118 1297.58 116.882 1296.2 117.3C1296.72 117.51 1297.13 117.916 1297.35 118.429C1297.58 118.943 1297.59 119.524 1297.39 120.047C1297.07 120.549 1296.59 120.921 1296.02 121.094C1295.46 121.267 1294.85 121.23 1294.31 120.99C1293.24 120.469 1292.32 119.689 1291.63 118.721C1292.42 120.094 1292.69 121.704 1292.4 123.259C1290.87 122.712 1289.53 121.754 1288.51 120.49C1287.49 119.226 1286.84 117.705 1286.63 116.094C1285.9 115.509 1285.38 114.69 1285.18 113.773C1284.98 112.856 1285.09 111.896 1285.51 111.055C1284.81 110.745 1284.2 110.247 1283.76 109.615C1283.31 108.984 1283.05 108.242 1283 107.472" fill="#FFBE9D"/>
        <path d="M1296.15 117.264C1295.69 116.957 1295.26 116.618 1294.85 116.249C1293.83 115.407 1292.65 114.8 1291.37 114.47C1290.68 114.315 1289.96 114.315 1289.27 114.47C1288.71 114.618 1288.18 114.882 1287.73 115.246C1287.33 115.607 1286.99 116.035 1286.73 116.512C1286.73 116.512 1286.73 116.345 1286.84 116.07C1287.02 115.691 1287.27 115.351 1287.58 115.067C1288.04 114.643 1288.59 114.335 1289.2 114.172C1289.94 113.998 1290.7 113.998 1291.44 114.172C1292.78 114.498 1294 115.159 1295.01 116.094C1295.44 116.432 1295.83 116.825 1296.15 117.264Z" fill="#65463C"/>
        <path d="M1295.8 111.449C1295.24 111.287 1294.71 111.062 1294.2 110.78C1293.65 110.499 1293.08 110.247 1292.5 110.028C1291.79 109.78 1291.06 109.593 1290.31 109.466C1289.58 109.33 1288.82 109.33 1288.09 109.466C1287.5 109.581 1286.94 109.825 1286.45 110.183C1286 110.531 1285.64 110.971 1285.38 111.473C1285.38 111.473 1285.38 111.294 1285.51 111.007C1285.69 110.612 1285.97 110.265 1286.31 109.992C1286.81 109.585 1287.4 109.299 1288.03 109.156C1288.82 109.002 1289.62 109.002 1290.41 109.156C1291.17 109.292 1291.92 109.496 1292.64 109.765C1293.23 110.002 1293.8 110.277 1294.34 110.589C1294.85 110.839 1295.33 111.127 1295.8 111.449Z" fill="#65463C"/>
        <path d="M1313.27 112.643H1313.48C1314 112.671 1314.48 112.9 1314.83 113.282C1315.18 113.664 1315.37 114.169 1315.36 114.688C1315.34 115.208 1315.13 115.701 1314.76 116.063C1314.39 116.426 1313.89 116.629 1313.37 116.629C1312.86 116.629 1312.36 116.426 1311.99 116.063C1311.62 115.701 1311.4 115.208 1311.39 114.688C1311.37 114.169 1311.56 113.664 1311.91 113.282C1312.26 112.9 1312.75 112.671 1313.27 112.643Z" fill="white"/>
        <path d="M1352.05 102.588C1352.05 102.588 1347.81 94.2886 1346.57 94.7782C1345.32 95.2679 1343.68 95.2917 1344.47 98.4324C1345.27 101.573 1347.35 103.723 1347.23 106.183C1347.11 108.643 1345.19 114.171 1347.31 116.751C1349.44 119.33 1353.06 127.057 1353.06 127.057L1362.44 117.503L1360.34 114.41C1360.34 114.41 1363.9 109.514 1364.55 106.672C1364.88 104.379 1364.77 102.041 1364.2 99.7937C1364.32 98.3263 1363.96 96.8606 1363.18 95.6142C1363.32 94.3494 1363.38 93.0771 1363.36 91.8048C1363.36 89.8822 1358.39 81.9648 1358.39 81.9648C1357.7 82.2332 1357.15 82.7542 1356.84 83.4207C1356.53 84.0871 1356.48 84.8481 1356.71 85.5473C1357.24 87.224 1357.89 88.8602 1358.65 90.4434L1352.88 88.1865C1352.67 88.5791 1352.55 89.0106 1352.52 89.4537C1352.48 89.8968 1352.54 90.342 1352.69 90.7613C1352.83 91.1807 1353.07 91.5652 1353.37 91.8907C1353.67 92.2161 1354.03 92.4755 1354.44 92.6526C1357.49 94.3125 1358.01 95.7097 1358.01 95.7097L1353.62 96.0441C1353.62 96.0441 1353.21 98.4324 1354.97 98.9817L1356.72 99.4833L1352.05 102.588Z" fill="#FFBE9D"/>
        <path d="M1354.61 98.9338L1358.55 99.7936H1358.61V99.8533C1359.17 100.941 1359.44 102.154 1359.39 103.376C1359.26 104.843 1358.65 106.224 1357.64 107.293C1356.47 108.334 1355.15 109.184 1353.73 109.813C1352.59 110.34 1351.57 111.077 1350.72 111.986C1350.16 112.609 1349.78 113.373 1349.62 114.195C1349.52 114.78 1349.62 115.115 1349.54 115.115C1349.46 115.115 1349.54 115.043 1349.54 114.876C1349.51 114.642 1349.51 114.405 1349.54 114.171C1349.65 113.291 1350.02 112.463 1350.59 111.783C1351.44 110.829 1352.48 110.054 1353.63 109.502C1355.02 108.859 1356.31 108.023 1357.46 107.018C1358.43 106.012 1359.05 104.71 1359.21 103.316C1359.26 102.146 1359.03 100.98 1358.52 99.925L1358.6 99.9966C1357.24 99.7631 1355.9 99.4074 1354.61 98.9338Z" fill="#65463C"/>
        <path d="M1363.26 99.4236C1363.2 99.4236 1363.12 99.0534 1362.86 98.4921C1362.49 97.7841 1361.93 97.1987 1361.24 96.8084C1360.53 96.4272 1359.76 96.1536 1358.97 95.9963C1358.63 95.9644 1358.3 95.8839 1357.98 95.7575C1358.32 95.6813 1358.68 95.6813 1359.02 95.7575C1359.85 95.8502 1360.66 96.1015 1361.39 96.4979C1361.81 96.7351 1362.18 97.0421 1362.49 97.4054C1362.73 97.7045 1362.92 98.0388 1363.06 98.3966C1363.22 98.7147 1363.29 99.0693 1363.26 99.4236Z" fill="#65463C"/>
        <path d="M1362.76 94.5395C1362.67 94.5395 1362.01 93.4767 1360.88 92.3781C1359.75 91.2794 1358.66 90.6346 1358.71 90.5391C1360.53 91.2825 1361.99 92.7206 1362.76 94.5395Z" fill="#65463C"/>
    </g>
    <path d="M1401.05 81.6189C1401.05 81.6189 1423.82 89.7989 1415.18 118.316C1408.29 141.005 1394.15 168.124 1385.19 168.662C1380.54 168.936 1375.48 168.769 1372.33 166.273C1359.52 156.135 1351.69 128.979 1351.69 128.979L1363.93 115.235L1378.78 137.327C1380.45 136.598 1390.33 106.028 1390.33 106.028C1390.33 106.028 1397.47 82.5742 1401.05 81.6189Z" fill="#89A355"/>
    <defs>
        <filter id="filter0_d_0_1" x="1279" y="0" width="165.477" height="453.242" filterUnits="userSpaceOnUse" color-interpolation-filters="sRGB">
            <feFlood flood-opacity="0" result="BackgroundImageFix"/>
            <feColorMatrix in="SourceAlpha" type="matrix" values="0 0 0 0 0 0 0 0 0 0 0 0 0 0 0 0 0 0 127 0" result="hardAlpha"/>
            <feOffset dy="4"/>
            <feGaussianBlur stdDeviation="2"/>
            <feComposite in2="hardAlpha" operator="out"/>
            <feColorMatrix type="matrix" values="0 0 0 0 0 0 0 0 0 0 0 0 0 0 0 0 0 0 0.25 0"/>
            <feBlend mode="normal" in2="BackgroundImageFix" result="effect1_dropShadow_0_1"/>
            <feBlend mode="normal" in="SourceGraphic" in2="effect1_dropShadow_0_1" result="shape"/>
        </filter>
    </defs>
</svg>
